G04 #@! TF.FileFunction,Copper,L2,Bot,Signal*
%FSLAX46Y46*%
G04 Gerber Fmt 4.6, Leading zero omitted, Abs format (unit mm)*
G04 Created by KiCad (PCBNEW 4.0.7-e0-6372~58~ubuntu16.04.1) date Wed Aug 16 12:04:21 2017*
%MOMM*%
%LPD*%
G01*
G04 APERTURE LIST*
%ADD10C,0.100000*%
%ADD11R,1.800000X1.800000*%
%ADD12C,1.800000*%
%ADD13C,1.600000*%
%ADD14C,3.810000*%
%ADD15R,1.520000X1.520000*%
%ADD16C,1.520000*%
%ADD17O,1.600000X1.600000*%
%ADD18C,1.250000*%
%ADD19C,1.900000*%
%ADD20R,1.676400X1.676400*%
%ADD21C,1.676400*%
%ADD22O,1.800000X3.600000*%
%ADD23C,3.500000*%
%ADD24C,2.400000*%
%ADD25C,0.300000*%
%ADD26C,2.700000*%
G04 APERTURE END LIST*
D10*
D11*
X154250000Y-85500000D03*
D12*
X156790000Y-85500000D03*
D13*
X175500000Y-91000000D03*
X178500000Y-91000000D03*
X142750000Y-74750000D03*
X142750000Y-71750000D03*
X145750000Y-74750000D03*
X145750000Y-71750000D03*
X175500000Y-81250000D03*
X175500000Y-78250000D03*
X175500000Y-75250000D03*
X175500000Y-72250000D03*
X178500000Y-81250000D03*
X178500000Y-78250000D03*
X178500000Y-75250000D03*
X178500000Y-72250000D03*
D14*
X176920000Y-63710000D03*
X143390000Y-63460000D03*
D15*
X150500000Y-66000000D03*
D16*
X153290000Y-66000000D03*
X155960000Y-66000000D03*
X158750000Y-66000000D03*
X161550000Y-66000000D03*
X164340000Y-66000000D03*
X167010000Y-66000000D03*
X169800000Y-66000000D03*
X152070000Y-63460000D03*
X154610000Y-63460000D03*
X157410000Y-63460000D03*
X160150000Y-63460000D03*
X162900000Y-63460000D03*
X165690000Y-63460000D03*
X168430000Y-63460000D03*
D13*
X153750000Y-80750000D03*
D17*
X153750000Y-70590000D03*
D13*
X157250000Y-81000000D03*
D17*
X167410000Y-81000000D03*
D13*
X169750000Y-85000000D03*
D17*
X159590000Y-85000000D03*
D18*
X167500000Y-92250000D03*
X165500000Y-92250000D03*
X163500000Y-92250000D03*
X167500000Y-89750000D03*
X165500000Y-89750000D03*
X163500000Y-89750000D03*
D19*
X169600000Y-91000000D03*
X161400000Y-91000000D03*
D20*
X159380000Y-69880000D03*
D21*
X159380000Y-72420000D03*
X159380000Y-74960000D03*
X159380000Y-77500000D03*
X167000000Y-77500000D03*
X167000000Y-74960000D03*
X167000000Y-72420000D03*
X167000000Y-69880000D03*
D22*
X146750000Y-91500000D03*
X146750000Y-86500000D03*
X144250000Y-91500000D03*
X144250000Y-86500000D03*
X141750000Y-91500000D03*
X141750000Y-86500000D03*
D23*
X137160000Y-70485000D03*
D24*
X135960000Y-75085000D03*
D23*
X137160000Y-79685000D03*
D25*
X154250000Y-85500000D02*
X154250000Y-83000000D01*
X153000000Y-68500000D02*
X150500000Y-66000000D01*
X155250000Y-68500000D02*
X153000000Y-68500000D01*
X156750000Y-70000000D02*
X155250000Y-68500000D01*
X156750000Y-78250000D02*
X156750000Y-70000000D01*
X155500000Y-79500000D02*
X156750000Y-78250000D01*
X155500000Y-81750000D02*
X155500000Y-79500000D01*
X154250000Y-83000000D02*
X155500000Y-81750000D01*
D26*
X146750000Y-86500000D02*
X146750000Y-83885000D01*
X142550000Y-79685000D02*
X137160000Y-79685000D01*
X146750000Y-83885000D02*
X142550000Y-79685000D01*
D25*
X167500000Y-92250000D02*
X168750000Y-93500000D01*
X172250000Y-75500000D02*
X175500000Y-72250000D01*
X172250000Y-91500000D02*
X172250000Y-75500000D01*
X170250000Y-93500000D02*
X172250000Y-91500000D01*
X168750000Y-93500000D02*
X170250000Y-93500000D01*
X178500000Y-75250000D02*
X180500000Y-73250000D01*
X176240000Y-69490000D02*
X170500000Y-69490000D01*
X177250000Y-70500000D02*
X176240000Y-69490000D01*
X180000000Y-70500000D02*
X177250000Y-70500000D01*
X180500000Y-71000000D02*
X180000000Y-70500000D01*
X180500000Y-73250000D02*
X180500000Y-71000000D01*
X165500000Y-89750000D02*
X165500000Y-86000000D01*
X170500000Y-69490000D02*
X167010000Y-66000000D01*
X170500000Y-81000000D02*
X170500000Y-69490000D01*
X165500000Y-86000000D02*
X170500000Y-81000000D01*
X164790000Y-70210000D02*
X164790000Y-78290000D01*
X165500000Y-79090000D02*
X167410000Y-81000000D01*
X165500000Y-79000000D02*
X165500000Y-79090000D01*
X164790000Y-78290000D02*
X165500000Y-79000000D01*
X165690000Y-63460000D02*
X165690000Y-68060000D01*
X164750000Y-70170000D02*
X164790000Y-70210000D01*
X164790000Y-70210000D02*
X167000000Y-72420000D01*
X164750000Y-69000000D02*
X164750000Y-70170000D01*
X165690000Y-68060000D02*
X164750000Y-69000000D01*
X145750000Y-71750000D02*
X146500000Y-71750000D01*
X146500000Y-71750000D02*
X153750000Y-80750000D01*
D26*
X137160000Y-70485000D02*
X137160000Y-71755000D01*
X137160000Y-71755000D02*
X140155000Y-74750000D01*
X140155000Y-74750000D02*
X142750000Y-74750000D01*
D25*
X142750000Y-74750000D02*
X142750000Y-71750000D01*
M02*
