G04 #@! TF.FileFunction,Legend,Top*
%FSLAX46Y46*%
G04 Gerber Fmt 4.6, Leading zero omitted, Abs format (unit mm)*
G04 Created by KiCad (PCBNEW 4.0.7-e0-6372~58~ubuntu16.04.1) date Wed Aug 16 12:04:21 2017*
%MOMM*%
%LPD*%
G01*
G04 APERTURE LIST*
%ADD10C,0.100000*%
%ADD11C,0.200000*%
%ADD12C,0.120000*%
%ADD13C,0.150000*%
%ADD14C,0.152400*%
%ADD15C,0.203200*%
%ADD16C,0.010000*%
%ADD17C,0.050000*%
G04 APERTURE END LIST*
D10*
D11*
X140976189Y-95654762D02*
X141090475Y-95702381D01*
X141280951Y-95702381D01*
X141357141Y-95654762D01*
X141395237Y-95607143D01*
X141433332Y-95511905D01*
X141433332Y-95416667D01*
X141395237Y-95321429D01*
X141357141Y-95273810D01*
X141280951Y-95226190D01*
X141128570Y-95178571D01*
X141052379Y-95130952D01*
X141014284Y-95083333D01*
X140976189Y-94988095D01*
X140976189Y-94892857D01*
X141014284Y-94797619D01*
X141052379Y-94750000D01*
X141128570Y-94702381D01*
X141319046Y-94702381D01*
X141433332Y-94750000D01*
X141776189Y-95035714D02*
X141776189Y-96035714D01*
X141776189Y-95083333D02*
X141852380Y-95035714D01*
X142004761Y-95035714D01*
X142080951Y-95083333D01*
X142119046Y-95130952D01*
X142157142Y-95226190D01*
X142157142Y-95511905D01*
X142119046Y-95607143D01*
X142080951Y-95654762D01*
X142004761Y-95702381D01*
X141852380Y-95702381D01*
X141776189Y-95654762D01*
X142499999Y-95702381D02*
X142499999Y-95035714D01*
X142499999Y-95226190D02*
X142538094Y-95130952D01*
X142576190Y-95083333D01*
X142652380Y-95035714D01*
X142728571Y-95035714D01*
X143338094Y-95702381D02*
X143338094Y-95178571D01*
X143299999Y-95083333D01*
X143223809Y-95035714D01*
X143071428Y-95035714D01*
X142995237Y-95083333D01*
X143338094Y-95654762D02*
X143261904Y-95702381D01*
X143071428Y-95702381D01*
X142995237Y-95654762D01*
X142957142Y-95559524D01*
X142957142Y-95464286D01*
X142995237Y-95369048D01*
X143071428Y-95321429D01*
X143261904Y-95321429D01*
X143338094Y-95273810D01*
X143642857Y-95035714D02*
X143833333Y-95702381D01*
X144023809Y-95035714D02*
X143833333Y-95702381D01*
X143757142Y-95940476D01*
X143719047Y-95988095D01*
X143642857Y-96035714D01*
X144633333Y-95654762D02*
X144557143Y-95702381D01*
X144404762Y-95702381D01*
X144328571Y-95654762D01*
X144290476Y-95559524D01*
X144290476Y-95178571D01*
X144328571Y-95083333D01*
X144404762Y-95035714D01*
X144557143Y-95035714D01*
X144633333Y-95083333D01*
X144671428Y-95178571D01*
X144671428Y-95273810D01*
X144290476Y-95369048D01*
X145014285Y-95702381D02*
X145014285Y-95035714D01*
X145014285Y-95226190D02*
X145052380Y-95130952D01*
X145090476Y-95083333D01*
X145166666Y-95035714D01*
X145242857Y-95035714D01*
X145319047Y-95797619D02*
X145928571Y-95797619D01*
X146119047Y-95702381D02*
X146119047Y-94702381D01*
X146385714Y-95416667D01*
X146652381Y-94702381D01*
X146652381Y-95702381D01*
X147147619Y-95702381D02*
X147071428Y-95654762D01*
X147033333Y-95607143D01*
X146995238Y-95511905D01*
X146995238Y-95226190D01*
X147033333Y-95130952D01*
X147071428Y-95083333D01*
X147147619Y-95035714D01*
X147261905Y-95035714D01*
X147338095Y-95083333D01*
X147376190Y-95130952D01*
X147414286Y-95226190D01*
X147414286Y-95511905D01*
X147376190Y-95607143D01*
X147338095Y-95654762D01*
X147261905Y-95702381D01*
X147147619Y-95702381D01*
X148100000Y-95702381D02*
X148100000Y-94702381D01*
X148100000Y-95654762D02*
X148023810Y-95702381D01*
X147871429Y-95702381D01*
X147795238Y-95654762D01*
X147757143Y-95607143D01*
X147719048Y-95511905D01*
X147719048Y-95226190D01*
X147757143Y-95130952D01*
X147795238Y-95083333D01*
X147871429Y-95035714D01*
X148023810Y-95035714D01*
X148100000Y-95083333D01*
X148823810Y-95035714D02*
X148823810Y-95702381D01*
X148480953Y-95035714D02*
X148480953Y-95559524D01*
X148519048Y-95654762D01*
X148595239Y-95702381D01*
X148709525Y-95702381D01*
X148785715Y-95654762D01*
X148823810Y-95607143D01*
X149319049Y-95702381D02*
X149242858Y-95654762D01*
X149204763Y-95559524D01*
X149204763Y-94702381D01*
X149928573Y-95654762D02*
X149852383Y-95702381D01*
X149700002Y-95702381D01*
X149623811Y-95654762D01*
X149585716Y-95559524D01*
X149585716Y-95178571D01*
X149623811Y-95083333D01*
X149700002Y-95035714D01*
X149852383Y-95035714D01*
X149928573Y-95083333D01*
X149966668Y-95178571D01*
X149966668Y-95273810D01*
X149585716Y-95369048D01*
X150119049Y-95797619D02*
X150728573Y-95797619D01*
X150804763Y-94702381D02*
X151071430Y-95702381D01*
X151338097Y-94702381D01*
X152023811Y-95702381D02*
X151566668Y-95702381D01*
X151795239Y-95702381D02*
X151795239Y-94702381D01*
X151719049Y-94845238D01*
X151642858Y-94940476D01*
X151566668Y-94988095D01*
D12*
X157192335Y-84421392D02*
G75*
G03X153960000Y-84264484I-1672335J-1078608D01*
G01*
X157192335Y-86578608D02*
G75*
G02X153960000Y-86735516I-1672335J1078608D01*
G01*
X156561130Y-84420163D02*
G75*
G03X154479039Y-84420000I-1041130J-1079837D01*
G01*
X156561130Y-86579837D02*
G75*
G02X154479039Y-86580000I-1041130J1079837D01*
G01*
X153960000Y-84264000D02*
X153960000Y-84420000D01*
X153960000Y-86580000D02*
X153960000Y-86736000D01*
D13*
X181800000Y-89500000D02*
X180400000Y-89500000D01*
X181800000Y-89500000D02*
X181800000Y-92500000D01*
X181800000Y-92500000D02*
X180400000Y-92500000D01*
X173030000Y-87675000D02*
X178500000Y-87675000D01*
X173030000Y-87675000D02*
X173030000Y-94325000D01*
X173030000Y-94325000D02*
X178500000Y-94325000D01*
X180400000Y-94325000D02*
X180400000Y-87675000D01*
X149050000Y-71750000D02*
X147650000Y-71750000D01*
X149050000Y-71750000D02*
X149050000Y-74750000D01*
X149050000Y-74750000D02*
X147650000Y-74750000D01*
X140280000Y-68425000D02*
X145750000Y-68425000D01*
X140280000Y-68425000D02*
X140280000Y-78075000D01*
X140280000Y-78075000D02*
X145750000Y-78075000D01*
X147650000Y-78075000D02*
X147650000Y-68425000D01*
X181800000Y-75250000D02*
X180400000Y-75250000D01*
X181800000Y-75250000D02*
X181800000Y-78250000D01*
X181800000Y-78250000D02*
X180400000Y-78250000D01*
X173030000Y-68925000D02*
X178500000Y-68925000D01*
X173030000Y-68925000D02*
X173030000Y-84575000D01*
X173030000Y-84575000D02*
X178500000Y-84575000D01*
X180400000Y-84575000D02*
X180400000Y-68925000D01*
D12*
X152440000Y-78880000D02*
X155060000Y-78880000D01*
X155060000Y-78880000D02*
X155060000Y-72460000D01*
X155060000Y-72460000D02*
X152440000Y-72460000D01*
X152440000Y-72460000D02*
X152440000Y-78880000D01*
X153750000Y-79770000D02*
X153750000Y-78880000D01*
X153750000Y-71570000D02*
X153750000Y-72460000D01*
X159120000Y-79690000D02*
X159120000Y-82310000D01*
X159120000Y-82310000D02*
X165540000Y-82310000D01*
X165540000Y-82310000D02*
X165540000Y-79690000D01*
X165540000Y-79690000D02*
X159120000Y-79690000D01*
X158230000Y-81000000D02*
X159120000Y-81000000D01*
X166430000Y-81000000D02*
X165540000Y-81000000D01*
X167880000Y-86310000D02*
X167880000Y-83690000D01*
X167880000Y-83690000D02*
X161460000Y-83690000D01*
X161460000Y-83690000D02*
X161460000Y-86310000D01*
X161460000Y-86310000D02*
X167880000Y-86310000D01*
X168770000Y-85000000D02*
X167880000Y-85000000D01*
X160570000Y-85000000D02*
X161460000Y-85000000D01*
D13*
X169800000Y-87600000D02*
X169800000Y-89300000D01*
X169800000Y-94400000D02*
X169800000Y-92700000D01*
X161200000Y-87600000D02*
X161200000Y-89300000D01*
X161200000Y-94400000D02*
X161200000Y-92700000D01*
X169800000Y-87600000D02*
X161200000Y-87600000D01*
X169800000Y-94400000D02*
X161200000Y-94400000D01*
D14*
X159888000Y-78770000D02*
X166492000Y-78770000D01*
X166492000Y-68610000D02*
X163494800Y-68610000D01*
X163494800Y-68610000D02*
X162885200Y-68610000D01*
X162885200Y-68610000D02*
X160523000Y-68610000D01*
D10*
X163494800Y-68610000D02*
G75*
G02X162885200Y-68610000I-304800J0D01*
G01*
D15*
X149000000Y-93800000D02*
X149000000Y-93250000D01*
X149000000Y-93250000D02*
X149350000Y-93250000D01*
X149350000Y-93250000D02*
X149350000Y-92250000D01*
X149350000Y-92250000D02*
X149000000Y-92250000D01*
X149000000Y-92250000D02*
X149000000Y-87750000D01*
X149000000Y-87750000D02*
X149350000Y-87750000D01*
X149350000Y-87750000D02*
X149350000Y-85750000D01*
X149350000Y-85750000D02*
X149000000Y-85750000D01*
X149000000Y-85750000D02*
X149000000Y-83750000D01*
X149000000Y-83750000D02*
X149350000Y-83750000D01*
X149350000Y-83750000D02*
X149350000Y-82750000D01*
X149350000Y-82750000D02*
X149000000Y-82750000D01*
X149000000Y-82750000D02*
X149000000Y-81900000D01*
X149000000Y-81900000D02*
X139750000Y-81900000D01*
X139750000Y-81900000D02*
X139750000Y-82750000D01*
X139750000Y-83750000D02*
X139750000Y-85250000D01*
X139750000Y-85250000D02*
X139750000Y-85750000D01*
X139750000Y-87750000D02*
X139750000Y-92250000D01*
X139750000Y-93250000D02*
X139750000Y-93800000D01*
X139750000Y-93800000D02*
X149000000Y-93800000D01*
X148000000Y-93750000D02*
X148000000Y-82000000D01*
X149000000Y-85250000D02*
X139750000Y-85250000D01*
X145500000Y-93750000D02*
X145500000Y-82000000D01*
X143000000Y-93750000D02*
X143000000Y-82000000D01*
X140500000Y-93750000D02*
X140500000Y-82000000D01*
X147250000Y-84750000D02*
X147250000Y-83250000D01*
X147250000Y-83250000D02*
X146250000Y-83250000D01*
X146250000Y-83250000D02*
X146250000Y-84750000D01*
X146250000Y-84750000D02*
X147250000Y-84750000D01*
X139750000Y-93250000D02*
X140100000Y-93250000D01*
X140100000Y-93250000D02*
X140100000Y-92250000D01*
X140100000Y-92250000D02*
X139750000Y-92250000D01*
X139750000Y-87750000D02*
X140100000Y-87750000D01*
X140100000Y-87750000D02*
X140100000Y-85750000D01*
X140100000Y-85750000D02*
X139750000Y-85750000D01*
X139750000Y-83750000D02*
X140100000Y-83750000D01*
X140100000Y-83750000D02*
X140100000Y-82750000D01*
X140100000Y-82750000D02*
X139750000Y-82750000D01*
X144750000Y-84750000D02*
X144750000Y-83250000D01*
X144750000Y-83250000D02*
X143750000Y-83250000D01*
X143750000Y-83250000D02*
X143750000Y-84750000D01*
X143750000Y-84750000D02*
X144750000Y-84750000D01*
X142250000Y-84750000D02*
X142250000Y-83250000D01*
X142250000Y-83250000D02*
X141250000Y-83250000D01*
X141250000Y-83250000D02*
X141250000Y-84750000D01*
X141250000Y-84750000D02*
X142250000Y-84750000D01*
D16*
G36*
X153127409Y-95760111D02*
X153269518Y-95761790D01*
X153378524Y-95767608D01*
X153461225Y-95778928D01*
X153524421Y-95797113D01*
X153574910Y-95823526D01*
X153618426Y-95858529D01*
X153661589Y-95908930D01*
X153678439Y-95963337D01*
X153680000Y-95997083D01*
X153666083Y-96100215D01*
X153624151Y-96175085D01*
X153573584Y-96213317D01*
X153514956Y-96243635D01*
X153617478Y-96347446D01*
X153667442Y-96399873D01*
X153703932Y-96441658D01*
X153719816Y-96464582D01*
X153720000Y-96465628D01*
X153701646Y-96472548D01*
X153653156Y-96477642D01*
X153584381Y-96479952D01*
X153572409Y-96480000D01*
X153424818Y-96480000D01*
X153277322Y-96300000D01*
X152942299Y-96300000D01*
X152936149Y-96385000D01*
X152930000Y-96470000D01*
X152700000Y-96481996D01*
X152700000Y-96100000D01*
X153038364Y-96100000D01*
X153152563Y-96099307D01*
X153254159Y-96097390D01*
X153335804Y-96094489D01*
X153390154Y-96090846D01*
X153408364Y-96087860D01*
X153433642Y-96060363D01*
X153438375Y-96018380D01*
X153422563Y-95981745D01*
X153408364Y-95972139D01*
X153378551Y-95968107D01*
X153316086Y-95964641D01*
X153228314Y-95961983D01*
X153122581Y-95960374D01*
X153038364Y-95960000D01*
X152927073Y-95959349D01*
X152831180Y-95957547D01*
X152757195Y-95954818D01*
X152711627Y-95951385D01*
X152700000Y-95948365D01*
X152711685Y-95927787D01*
X152741882Y-95886710D01*
X152772409Y-95848365D01*
X152844818Y-95760000D01*
X153127409Y-95760111D01*
X153127409Y-95760111D01*
G37*
X153127409Y-95760111D02*
X153269518Y-95761790D01*
X153378524Y-95767608D01*
X153461225Y-95778928D01*
X153524421Y-95797113D01*
X153574910Y-95823526D01*
X153618426Y-95858529D01*
X153661589Y-95908930D01*
X153678439Y-95963337D01*
X153680000Y-95997083D01*
X153666083Y-96100215D01*
X153624151Y-96175085D01*
X153573584Y-96213317D01*
X153514956Y-96243635D01*
X153617478Y-96347446D01*
X153667442Y-96399873D01*
X153703932Y-96441658D01*
X153719816Y-96464582D01*
X153720000Y-96465628D01*
X153701646Y-96472548D01*
X153653156Y-96477642D01*
X153584381Y-96479952D01*
X153572409Y-96480000D01*
X153424818Y-96480000D01*
X153277322Y-96300000D01*
X152942299Y-96300000D01*
X152936149Y-96385000D01*
X152930000Y-96470000D01*
X152700000Y-96481996D01*
X152700000Y-96100000D01*
X153038364Y-96100000D01*
X153152563Y-96099307D01*
X153254159Y-96097390D01*
X153335804Y-96094489D01*
X153390154Y-96090846D01*
X153408364Y-96087860D01*
X153433642Y-96060363D01*
X153438375Y-96018380D01*
X153422563Y-95981745D01*
X153408364Y-95972139D01*
X153378551Y-95968107D01*
X153316086Y-95964641D01*
X153228314Y-95961983D01*
X153122581Y-95960374D01*
X153038364Y-95960000D01*
X152927073Y-95959349D01*
X152831180Y-95957547D01*
X152757195Y-95954818D01*
X152711627Y-95951385D01*
X152700000Y-95948365D01*
X152711685Y-95927787D01*
X152741882Y-95886710D01*
X152772409Y-95848365D01*
X152844818Y-95760000D01*
X153127409Y-95760111D01*
G36*
X154479755Y-95762062D02*
X154533609Y-95766428D01*
X154576213Y-95776208D01*
X154617142Y-95792715D01*
X154658978Y-95813646D01*
X154749475Y-95869311D01*
X154807443Y-95930032D01*
X154840058Y-96005729D01*
X154852477Y-96081176D01*
X154847378Y-96201030D01*
X154807594Y-96301126D01*
X154733447Y-96380866D01*
X154670000Y-96420000D01*
X154618442Y-96443128D01*
X154567258Y-96458342D01*
X154505406Y-96467522D01*
X154421844Y-96472549D01*
X154350000Y-96474493D01*
X154223557Y-96473856D01*
X154121682Y-96466729D01*
X154051750Y-96453642D01*
X154049580Y-96452956D01*
X153939698Y-96405202D01*
X153864213Y-96341466D01*
X153819253Y-96256383D01*
X153802872Y-96156320D01*
X154029219Y-96156320D01*
X154056355Y-96222521D01*
X154069504Y-96238076D01*
X154107302Y-96257878D01*
X154170354Y-96275029D01*
X154243913Y-96286911D01*
X154313233Y-96290906D01*
X154350000Y-96287861D01*
X154397657Y-96282719D01*
X154458254Y-96280290D01*
X154461228Y-96280273D01*
X154540487Y-96264005D01*
X154593945Y-96217903D01*
X154618641Y-96144970D01*
X154620000Y-96119220D01*
X154609248Y-96046666D01*
X154573695Y-95996985D01*
X154508395Y-95965742D01*
X154432633Y-95951194D01*
X154304029Y-95943302D01*
X154194171Y-95952832D01*
X154109387Y-95978668D01*
X154057793Y-96017348D01*
X154029393Y-96082181D01*
X154029219Y-96156320D01*
X153802872Y-96156320D01*
X153800950Y-96144584D01*
X153800074Y-96106977D01*
X153812565Y-95994535D01*
X153852254Y-95908049D01*
X153922713Y-95841196D01*
X153964215Y-95816461D01*
X154007378Y-95796636D01*
X154054273Y-95782915D01*
X154114140Y-95773864D01*
X154196215Y-95768048D01*
X154300000Y-95764301D01*
X154405076Y-95761791D01*
X154479755Y-95762062D01*
X154479755Y-95762062D01*
G37*
X154479755Y-95762062D02*
X154533609Y-95766428D01*
X154576213Y-95776208D01*
X154617142Y-95792715D01*
X154658978Y-95813646D01*
X154749475Y-95869311D01*
X154807443Y-95930032D01*
X154840058Y-96005729D01*
X154852477Y-96081176D01*
X154847378Y-96201030D01*
X154807594Y-96301126D01*
X154733447Y-96380866D01*
X154670000Y-96420000D01*
X154618442Y-96443128D01*
X154567258Y-96458342D01*
X154505406Y-96467522D01*
X154421844Y-96472549D01*
X154350000Y-96474493D01*
X154223557Y-96473856D01*
X154121682Y-96466729D01*
X154051750Y-96453642D01*
X154049580Y-96452956D01*
X153939698Y-96405202D01*
X153864213Y-96341466D01*
X153819253Y-96256383D01*
X153802872Y-96156320D01*
X154029219Y-96156320D01*
X154056355Y-96222521D01*
X154069504Y-96238076D01*
X154107302Y-96257878D01*
X154170354Y-96275029D01*
X154243913Y-96286911D01*
X154313233Y-96290906D01*
X154350000Y-96287861D01*
X154397657Y-96282719D01*
X154458254Y-96280290D01*
X154461228Y-96280273D01*
X154540487Y-96264005D01*
X154593945Y-96217903D01*
X154618641Y-96144970D01*
X154620000Y-96119220D01*
X154609248Y-96046666D01*
X154573695Y-95996985D01*
X154508395Y-95965742D01*
X154432633Y-95951194D01*
X154304029Y-95943302D01*
X154194171Y-95952832D01*
X154109387Y-95978668D01*
X154057793Y-96017348D01*
X154029393Y-96082181D01*
X154029219Y-96156320D01*
X153802872Y-96156320D01*
X153800950Y-96144584D01*
X153800074Y-96106977D01*
X153812565Y-95994535D01*
X153852254Y-95908049D01*
X153922713Y-95841196D01*
X153964215Y-95816461D01*
X154007378Y-95796636D01*
X154054273Y-95782915D01*
X154114140Y-95773864D01*
X154196215Y-95768048D01*
X154300000Y-95764301D01*
X154405076Y-95761791D01*
X154479755Y-95762062D01*
G36*
X155576214Y-95761974D02*
X155682984Y-95768667D01*
X155762004Y-95781525D01*
X155819325Y-95801918D01*
X155860999Y-95831216D01*
X155887386Y-95862337D01*
X155914646Y-95927048D01*
X155916736Y-95996470D01*
X155894061Y-96054782D01*
X155882104Y-96068095D01*
X155858260Y-96093108D01*
X155859277Y-96113737D01*
X155887002Y-96145173D01*
X155892104Y-96150286D01*
X155933309Y-96215730D01*
X155939745Y-96287605D01*
X155913700Y-96357284D01*
X155857462Y-96416138D01*
X155815148Y-96440472D01*
X155779550Y-96454550D01*
X155739531Y-96464812D01*
X155688291Y-96471846D01*
X155619029Y-96476245D01*
X155524946Y-96478599D01*
X155399239Y-96479497D01*
X155365000Y-96479560D01*
X155000000Y-96480000D01*
X155000000Y-96240000D01*
X155240000Y-96240000D01*
X155242026Y-96257834D01*
X155252677Y-96269372D01*
X155278814Y-96275699D01*
X155327297Y-96277903D01*
X155404985Y-96277071D01*
X155465000Y-96275655D01*
X155565182Y-96272240D01*
X155631535Y-96267332D01*
X155670227Y-96259956D01*
X155687425Y-96249132D01*
X155690000Y-96240000D01*
X155683271Y-96226473D01*
X155658976Y-96217015D01*
X155610944Y-96210649D01*
X155533010Y-96206397D01*
X155465000Y-96204344D01*
X155367584Y-96202268D01*
X155303286Y-96202608D01*
X155265246Y-96206450D01*
X155246603Y-96214883D01*
X155240499Y-96228993D01*
X155240000Y-96240000D01*
X155000000Y-96240000D01*
X155000000Y-96040000D01*
X155318364Y-96040000D01*
X155452152Y-96039423D01*
X155551026Y-96037234D01*
X155620062Y-96032746D01*
X155664336Y-96025271D01*
X155688924Y-96014122D01*
X155698900Y-95998612D01*
X155700000Y-95988321D01*
X155692610Y-95978023D01*
X155667272Y-95970191D01*
X155619233Y-95964381D01*
X155543740Y-95960149D01*
X155436039Y-95957051D01*
X155348154Y-95955461D01*
X154996309Y-95950000D01*
X155073154Y-95855077D01*
X155150000Y-95760154D01*
X155435642Y-95760077D01*
X155576214Y-95761974D01*
X155576214Y-95761974D01*
G37*
X155576214Y-95761974D02*
X155682984Y-95768667D01*
X155762004Y-95781525D01*
X155819325Y-95801918D01*
X155860999Y-95831216D01*
X155887386Y-95862337D01*
X155914646Y-95927048D01*
X155916736Y-95996470D01*
X155894061Y-96054782D01*
X155882104Y-96068095D01*
X155858260Y-96093108D01*
X155859277Y-96113737D01*
X155887002Y-96145173D01*
X155892104Y-96150286D01*
X155933309Y-96215730D01*
X155939745Y-96287605D01*
X155913700Y-96357284D01*
X155857462Y-96416138D01*
X155815148Y-96440472D01*
X155779550Y-96454550D01*
X155739531Y-96464812D01*
X155688291Y-96471846D01*
X155619029Y-96476245D01*
X155524946Y-96478599D01*
X155399239Y-96479497D01*
X155365000Y-96479560D01*
X155000000Y-96480000D01*
X155000000Y-96240000D01*
X155240000Y-96240000D01*
X155242026Y-96257834D01*
X155252677Y-96269372D01*
X155278814Y-96275699D01*
X155327297Y-96277903D01*
X155404985Y-96277071D01*
X155465000Y-96275655D01*
X155565182Y-96272240D01*
X155631535Y-96267332D01*
X155670227Y-96259956D01*
X155687425Y-96249132D01*
X155690000Y-96240000D01*
X155683271Y-96226473D01*
X155658976Y-96217015D01*
X155610944Y-96210649D01*
X155533010Y-96206397D01*
X155465000Y-96204344D01*
X155367584Y-96202268D01*
X155303286Y-96202608D01*
X155265246Y-96206450D01*
X155246603Y-96214883D01*
X155240499Y-96228993D01*
X155240000Y-96240000D01*
X155000000Y-96240000D01*
X155000000Y-96040000D01*
X155318364Y-96040000D01*
X155452152Y-96039423D01*
X155551026Y-96037234D01*
X155620062Y-96032746D01*
X155664336Y-96025271D01*
X155688924Y-96014122D01*
X155698900Y-95998612D01*
X155700000Y-95988321D01*
X155692610Y-95978023D01*
X155667272Y-95970191D01*
X155619233Y-95964381D01*
X155543740Y-95960149D01*
X155436039Y-95957051D01*
X155348154Y-95955461D01*
X154996309Y-95950000D01*
X155073154Y-95855077D01*
X155150000Y-95760154D01*
X155435642Y-95760077D01*
X155576214Y-95761974D01*
G36*
X156751212Y-95764620D02*
X156820711Y-95774035D01*
X156877687Y-95789231D01*
X156984045Y-95843057D01*
X157060564Y-95922117D01*
X157105314Y-96022990D01*
X157116364Y-96142256D01*
X157109882Y-96200694D01*
X157074677Y-96300157D01*
X157006312Y-96377679D01*
X156904681Y-96433314D01*
X156769679Y-96467120D01*
X156601197Y-96479151D01*
X156584249Y-96479168D01*
X156436525Y-96472485D01*
X156324939Y-96453696D01*
X156293912Y-96444168D01*
X156187245Y-96393557D01*
X156115331Y-96327177D01*
X156074251Y-96239488D01*
X156060121Y-96125208D01*
X156293146Y-96125208D01*
X156303416Y-96192340D01*
X156328000Y-96236572D01*
X156364308Y-96255296D01*
X156425961Y-96272257D01*
X156498311Y-96284897D01*
X156566712Y-96290661D01*
X156616516Y-96286991D01*
X156616635Y-96286960D01*
X156653105Y-96282419D01*
X156709182Y-96280083D01*
X156721635Y-96280000D01*
X156801878Y-96265580D01*
X156854201Y-96222529D01*
X156878294Y-96151163D01*
X156880000Y-96120000D01*
X156867662Y-96043329D01*
X156842633Y-96002633D01*
X156790989Y-95973153D01*
X156712877Y-95953992D01*
X156619585Y-95945122D01*
X156522401Y-95946518D01*
X156432613Y-95958152D01*
X156361508Y-95980000D01*
X156326526Y-96003838D01*
X156300811Y-96056388D01*
X156293146Y-96125208D01*
X156060121Y-96125208D01*
X156060088Y-96124949D01*
X156060000Y-96113385D01*
X156075323Y-95996869D01*
X156122265Y-95903985D01*
X156202288Y-95832092D01*
X156221989Y-95820227D01*
X156265777Y-95798030D01*
X156310560Y-95782957D01*
X156366204Y-95773258D01*
X156442579Y-95767182D01*
X156543619Y-95763161D01*
X156662224Y-95761259D01*
X156751212Y-95764620D01*
X156751212Y-95764620D01*
G37*
X156751212Y-95764620D02*
X156820711Y-95774035D01*
X156877687Y-95789231D01*
X156984045Y-95843057D01*
X157060564Y-95922117D01*
X157105314Y-96022990D01*
X157116364Y-96142256D01*
X157109882Y-96200694D01*
X157074677Y-96300157D01*
X157006312Y-96377679D01*
X156904681Y-96433314D01*
X156769679Y-96467120D01*
X156601197Y-96479151D01*
X156584249Y-96479168D01*
X156436525Y-96472485D01*
X156324939Y-96453696D01*
X156293912Y-96444168D01*
X156187245Y-96393557D01*
X156115331Y-96327177D01*
X156074251Y-96239488D01*
X156060121Y-96125208D01*
X156293146Y-96125208D01*
X156303416Y-96192340D01*
X156328000Y-96236572D01*
X156364308Y-96255296D01*
X156425961Y-96272257D01*
X156498311Y-96284897D01*
X156566712Y-96290661D01*
X156616516Y-96286991D01*
X156616635Y-96286960D01*
X156653105Y-96282419D01*
X156709182Y-96280083D01*
X156721635Y-96280000D01*
X156801878Y-96265580D01*
X156854201Y-96222529D01*
X156878294Y-96151163D01*
X156880000Y-96120000D01*
X156867662Y-96043329D01*
X156842633Y-96002633D01*
X156790989Y-95973153D01*
X156712877Y-95953992D01*
X156619585Y-95945122D01*
X156522401Y-95946518D01*
X156432613Y-95958152D01*
X156361508Y-95980000D01*
X156326526Y-96003838D01*
X156300811Y-96056388D01*
X156293146Y-96125208D01*
X156060121Y-96125208D01*
X156060088Y-96124949D01*
X156060000Y-96113385D01*
X156075323Y-95996869D01*
X156122265Y-95903985D01*
X156202288Y-95832092D01*
X156221989Y-95820227D01*
X156265777Y-95798030D01*
X156310560Y-95782957D01*
X156366204Y-95773258D01*
X156442579Y-95767182D01*
X156543619Y-95763161D01*
X156662224Y-95761259D01*
X156751212Y-95764620D01*
G36*
X157868950Y-95761065D02*
X157978134Y-95762355D01*
X158066674Y-95764475D01*
X158128692Y-95767270D01*
X158158310Y-95770586D01*
X158160000Y-95771634D01*
X158148314Y-95792212D01*
X158118117Y-95833289D01*
X158087590Y-95871634D01*
X158046663Y-95919516D01*
X158013798Y-95945947D01*
X157974567Y-95957300D01*
X157914544Y-95959949D01*
X157887590Y-95960000D01*
X157760000Y-95960000D01*
X157760000Y-96480000D01*
X157540000Y-96480000D01*
X157540000Y-95960000D01*
X157368333Y-95960000D01*
X157292108Y-95958399D01*
X157234903Y-95954121D01*
X157205389Y-95947955D01*
X157203333Y-95945000D01*
X157217957Y-95921246D01*
X157248023Y-95876991D01*
X157270000Y-95845759D01*
X157330000Y-95761518D01*
X157745000Y-95760759D01*
X157868950Y-95761065D01*
X157868950Y-95761065D01*
G37*
X157868950Y-95761065D02*
X157978134Y-95762355D01*
X158066674Y-95764475D01*
X158128692Y-95767270D01*
X158158310Y-95770586D01*
X158160000Y-95771634D01*
X158148314Y-95792212D01*
X158118117Y-95833289D01*
X158087590Y-95871634D01*
X158046663Y-95919516D01*
X158013798Y-95945947D01*
X157974567Y-95957300D01*
X157914544Y-95959949D01*
X157887590Y-95960000D01*
X157760000Y-95960000D01*
X157760000Y-96480000D01*
X157540000Y-96480000D01*
X157540000Y-95960000D01*
X157368333Y-95960000D01*
X157292108Y-95958399D01*
X157234903Y-95954121D01*
X157205389Y-95947955D01*
X157203333Y-95945000D01*
X157217957Y-95921246D01*
X157248023Y-95876991D01*
X157270000Y-95845759D01*
X157330000Y-95761518D01*
X157745000Y-95760759D01*
X157868950Y-95761065D01*
G36*
X158500000Y-96480000D02*
X158260000Y-96480000D01*
X158260000Y-95760000D01*
X158500000Y-95760000D01*
X158500000Y-96480000D01*
X158500000Y-96480000D01*
G37*
X158500000Y-96480000D02*
X158260000Y-96480000D01*
X158260000Y-95760000D01*
X158500000Y-95760000D01*
X158500000Y-96480000D01*
G36*
X159527397Y-95858287D02*
X159451461Y-95960000D01*
X159224192Y-95960000D01*
X159125781Y-95960358D01*
X159058718Y-95962615D01*
X159014349Y-95968540D01*
X158984024Y-95979904D01*
X158959089Y-95998477D01*
X158938461Y-96018461D01*
X158901094Y-96065841D01*
X158881068Y-96110735D01*
X158880000Y-96120000D01*
X158893588Y-96161122D01*
X158927339Y-96209628D01*
X158938461Y-96221538D01*
X158996923Y-96280000D01*
X159602922Y-96280000D01*
X159450000Y-96478296D01*
X159230000Y-96477755D01*
X159105673Y-96474120D01*
X158999376Y-96464504D01*
X158921434Y-96449883D01*
X158915086Y-96448027D01*
X158812200Y-96399454D01*
X158731744Y-96328052D01*
X158676406Y-96240852D01*
X158648871Y-96144890D01*
X158651827Y-96047198D01*
X158687959Y-95954810D01*
X158713311Y-95919711D01*
X158760205Y-95869338D01*
X158809026Y-95831402D01*
X158866424Y-95804026D01*
X158939047Y-95785332D01*
X159033545Y-95773444D01*
X159156565Y-95766484D01*
X159266666Y-95763467D01*
X159603332Y-95756574D01*
X159527397Y-95858287D01*
X159527397Y-95858287D01*
G37*
X159527397Y-95858287D02*
X159451461Y-95960000D01*
X159224192Y-95960000D01*
X159125781Y-95960358D01*
X159058718Y-95962615D01*
X159014349Y-95968540D01*
X158984024Y-95979904D01*
X158959089Y-95998477D01*
X158938461Y-96018461D01*
X158901094Y-96065841D01*
X158881068Y-96110735D01*
X158880000Y-96120000D01*
X158893588Y-96161122D01*
X158927339Y-96209628D01*
X158938461Y-96221538D01*
X158996923Y-96280000D01*
X159602922Y-96280000D01*
X159450000Y-96478296D01*
X159230000Y-96477755D01*
X159105673Y-96474120D01*
X158999376Y-96464504D01*
X158921434Y-96449883D01*
X158915086Y-96448027D01*
X158812200Y-96399454D01*
X158731744Y-96328052D01*
X158676406Y-96240852D01*
X158648871Y-96144890D01*
X158651827Y-96047198D01*
X158687959Y-95954810D01*
X158713311Y-95919711D01*
X158760205Y-95869338D01*
X158809026Y-95831402D01*
X158866424Y-95804026D01*
X158939047Y-95785332D01*
X159033545Y-95773444D01*
X159156565Y-95766484D01*
X159266666Y-95763467D01*
X159603332Y-95756574D01*
X159527397Y-95858287D01*
G36*
X160374466Y-95760685D02*
X160474382Y-95762589D01*
X160552798Y-95765483D01*
X160603410Y-95769140D01*
X160620000Y-95773042D01*
X160608901Y-95795051D01*
X160580377Y-95837674D01*
X160555000Y-95872424D01*
X160490000Y-95958763D01*
X160203533Y-95959381D01*
X160091034Y-95959999D01*
X160012685Y-95961781D01*
X159962639Y-95965471D01*
X159935047Y-95971815D01*
X159924063Y-95981556D01*
X159923753Y-95995000D01*
X159930439Y-96008858D01*
X159948385Y-96019039D01*
X159983587Y-96026441D01*
X160042043Y-96031963D01*
X160129752Y-96036506D01*
X160223831Y-96040000D01*
X160360203Y-96046457D01*
X160462272Y-96056705D01*
X160535705Y-96072946D01*
X160586166Y-96097380D01*
X160619322Y-96132212D01*
X160640838Y-96179642D01*
X160648029Y-96204880D01*
X160649218Y-96285167D01*
X160616744Y-96361799D01*
X160556243Y-96423649D01*
X160528990Y-96440000D01*
X160490537Y-96450627D01*
X160424054Y-96459842D01*
X160336249Y-96467514D01*
X160233829Y-96473516D01*
X160123502Y-96477717D01*
X160011975Y-96479988D01*
X159905955Y-96480201D01*
X159812150Y-96478227D01*
X159737268Y-96473936D01*
X159688016Y-96467200D01*
X159671101Y-96457889D01*
X159671618Y-96456498D01*
X159693117Y-96425495D01*
X159729008Y-96377996D01*
X159746666Y-96355505D01*
X159805882Y-96281010D01*
X160107689Y-96275505D01*
X160225294Y-96272842D01*
X160308698Y-96269364D01*
X160363700Y-96264355D01*
X160396099Y-96257100D01*
X160411692Y-96246886D01*
X160415723Y-96237548D01*
X160413858Y-96224561D01*
X160398702Y-96215014D01*
X160364542Y-96208049D01*
X160305667Y-96202810D01*
X160216364Y-96198437D01*
X160135975Y-96195543D01*
X159999848Y-96189365D01*
X159897711Y-96180088D01*
X159823582Y-96166055D01*
X159771477Y-96145607D01*
X159735413Y-96117088D01*
X159709407Y-96078839D01*
X159708500Y-96077099D01*
X159682221Y-95993667D01*
X159694749Y-95917280D01*
X159723358Y-95870273D01*
X159756195Y-95833807D01*
X159793604Y-95806259D01*
X159841457Y-95786420D01*
X159905628Y-95773083D01*
X159991987Y-95765040D01*
X160106408Y-95761081D01*
X160254762Y-95760000D01*
X160259357Y-95760000D01*
X160374466Y-95760685D01*
X160374466Y-95760685D01*
G37*
X160374466Y-95760685D02*
X160474382Y-95762589D01*
X160552798Y-95765483D01*
X160603410Y-95769140D01*
X160620000Y-95773042D01*
X160608901Y-95795051D01*
X160580377Y-95837674D01*
X160555000Y-95872424D01*
X160490000Y-95958763D01*
X160203533Y-95959381D01*
X160091034Y-95959999D01*
X160012685Y-95961781D01*
X159962639Y-95965471D01*
X159935047Y-95971815D01*
X159924063Y-95981556D01*
X159923753Y-95995000D01*
X159930439Y-96008858D01*
X159948385Y-96019039D01*
X159983587Y-96026441D01*
X160042043Y-96031963D01*
X160129752Y-96036506D01*
X160223831Y-96040000D01*
X160360203Y-96046457D01*
X160462272Y-96056705D01*
X160535705Y-96072946D01*
X160586166Y-96097380D01*
X160619322Y-96132212D01*
X160640838Y-96179642D01*
X160648029Y-96204880D01*
X160649218Y-96285167D01*
X160616744Y-96361799D01*
X160556243Y-96423649D01*
X160528990Y-96440000D01*
X160490537Y-96450627D01*
X160424054Y-96459842D01*
X160336249Y-96467514D01*
X160233829Y-96473516D01*
X160123502Y-96477717D01*
X160011975Y-96479988D01*
X159905955Y-96480201D01*
X159812150Y-96478227D01*
X159737268Y-96473936D01*
X159688016Y-96467200D01*
X159671101Y-96457889D01*
X159671618Y-96456498D01*
X159693117Y-96425495D01*
X159729008Y-96377996D01*
X159746666Y-96355505D01*
X159805882Y-96281010D01*
X160107689Y-96275505D01*
X160225294Y-96272842D01*
X160308698Y-96269364D01*
X160363700Y-96264355D01*
X160396099Y-96257100D01*
X160411692Y-96246886D01*
X160415723Y-96237548D01*
X160413858Y-96224561D01*
X160398702Y-96215014D01*
X160364542Y-96208049D01*
X160305667Y-96202810D01*
X160216364Y-96198437D01*
X160135975Y-96195543D01*
X159999848Y-96189365D01*
X159897711Y-96180088D01*
X159823582Y-96166055D01*
X159771477Y-96145607D01*
X159735413Y-96117088D01*
X159709407Y-96078839D01*
X159708500Y-96077099D01*
X159682221Y-95993667D01*
X159694749Y-95917280D01*
X159723358Y-95870273D01*
X159756195Y-95833807D01*
X159793604Y-95806259D01*
X159841457Y-95786420D01*
X159905628Y-95773083D01*
X159991987Y-95765040D01*
X160106408Y-95761081D01*
X160254762Y-95760000D01*
X160259357Y-95760000D01*
X160374466Y-95760685D01*
G36*
X159697316Y-93934244D02*
X159753864Y-93959090D01*
X159784755Y-93987720D01*
X159836690Y-94048274D01*
X159908592Y-94139351D01*
X159999384Y-94259547D01*
X160107990Y-94407461D01*
X160233332Y-94581691D01*
X160249244Y-94604015D01*
X160680759Y-95210000D01*
X159917286Y-95215240D01*
X159746525Y-95216179D01*
X159588599Y-95216598D01*
X159447910Y-95216520D01*
X159328862Y-95215967D01*
X159235857Y-95214962D01*
X159173299Y-95213526D01*
X159145590Y-95211681D01*
X159144663Y-95211330D01*
X159151959Y-95192572D01*
X159178998Y-95149470D01*
X159221016Y-95089295D01*
X159252887Y-95046089D01*
X159370262Y-94890000D01*
X159635131Y-94884419D01*
X159732815Y-94881631D01*
X159814255Y-94877915D01*
X159872092Y-94873712D01*
X159898970Y-94869465D01*
X159900000Y-94868534D01*
X159889067Y-94845626D01*
X159859750Y-94799248D01*
X159817272Y-94736632D01*
X159766855Y-94665008D01*
X159713722Y-94591610D01*
X159663095Y-94523669D01*
X159620197Y-94468416D01*
X159590249Y-94433084D01*
X159579011Y-94424052D01*
X159563095Y-94441286D01*
X159527317Y-94486507D01*
X159475099Y-94555180D01*
X159409861Y-94642767D01*
X159335026Y-94744732D01*
X159280378Y-94820000D01*
X159173188Y-94965994D01*
X159086363Y-95079308D01*
X159020156Y-95159632D01*
X158974818Y-95206658D01*
X158954210Y-95220000D01*
X158916427Y-95223239D01*
X158849240Y-95224102D01*
X158763170Y-95222591D01*
X158694732Y-95220000D01*
X158479464Y-95210000D01*
X158916594Y-94610000D01*
X159023090Y-94465053D01*
X159122873Y-94331610D01*
X159213118Y-94213287D01*
X159291004Y-94113703D01*
X159353707Y-94036477D01*
X159398403Y-93985228D01*
X159419820Y-93965000D01*
X159502841Y-93929701D01*
X159600845Y-93919351D01*
X159697316Y-93934244D01*
X159697316Y-93934244D01*
G37*
X159697316Y-93934244D02*
X159753864Y-93959090D01*
X159784755Y-93987720D01*
X159836690Y-94048274D01*
X159908592Y-94139351D01*
X159999384Y-94259547D01*
X160107990Y-94407461D01*
X160233332Y-94581691D01*
X160249244Y-94604015D01*
X160680759Y-95210000D01*
X159917286Y-95215240D01*
X159746525Y-95216179D01*
X159588599Y-95216598D01*
X159447910Y-95216520D01*
X159328862Y-95215967D01*
X159235857Y-95214962D01*
X159173299Y-95213526D01*
X159145590Y-95211681D01*
X159144663Y-95211330D01*
X159151959Y-95192572D01*
X159178998Y-95149470D01*
X159221016Y-95089295D01*
X159252887Y-95046089D01*
X159370262Y-94890000D01*
X159635131Y-94884419D01*
X159732815Y-94881631D01*
X159814255Y-94877915D01*
X159872092Y-94873712D01*
X159898970Y-94869465D01*
X159900000Y-94868534D01*
X159889067Y-94845626D01*
X159859750Y-94799248D01*
X159817272Y-94736632D01*
X159766855Y-94665008D01*
X159713722Y-94591610D01*
X159663095Y-94523669D01*
X159620197Y-94468416D01*
X159590249Y-94433084D01*
X159579011Y-94424052D01*
X159563095Y-94441286D01*
X159527317Y-94486507D01*
X159475099Y-94555180D01*
X159409861Y-94642767D01*
X159335026Y-94744732D01*
X159280378Y-94820000D01*
X159173188Y-94965994D01*
X159086363Y-95079308D01*
X159020156Y-95159632D01*
X158974818Y-95206658D01*
X158954210Y-95220000D01*
X158916427Y-95223239D01*
X158849240Y-95224102D01*
X158763170Y-95222591D01*
X158694732Y-95220000D01*
X158479464Y-95210000D01*
X158916594Y-94610000D01*
X159023090Y-94465053D01*
X159122873Y-94331610D01*
X159213118Y-94213287D01*
X159291004Y-94113703D01*
X159353707Y-94036477D01*
X159398403Y-93985228D01*
X159419820Y-93965000D01*
X159502841Y-93929701D01*
X159600845Y-93919351D01*
X159697316Y-93934244D01*
G36*
X154145909Y-93943508D02*
X154254419Y-93944645D01*
X154335894Y-93946399D01*
X154385795Y-93948728D01*
X154400000Y-93951146D01*
X154388309Y-93971058D01*
X154356681Y-94015110D01*
X154310276Y-94076298D01*
X154267038Y-94131547D01*
X154134077Y-94299325D01*
X153634205Y-94304662D01*
X153478545Y-94306558D01*
X153358140Y-94308751D01*
X153268245Y-94311603D01*
X153204115Y-94315477D01*
X153161006Y-94320735D01*
X153134172Y-94327738D01*
X153118868Y-94336848D01*
X153112616Y-94344449D01*
X153100485Y-94368635D01*
X153100450Y-94387922D01*
X153116252Y-94402980D01*
X153151631Y-94414479D01*
X153210326Y-94423089D01*
X153296078Y-94429479D01*
X153412628Y-94434322D01*
X153563714Y-94438285D01*
X153645943Y-94440000D01*
X153801468Y-94443225D01*
X153922557Y-94446343D01*
X154014771Y-94449905D01*
X154083668Y-94454464D01*
X154134808Y-94460571D01*
X154173750Y-94468779D01*
X154206053Y-94479640D01*
X154237277Y-94493707D01*
X154250000Y-94500000D01*
X154342834Y-94565368D01*
X154404950Y-94648744D01*
X154437426Y-94743865D01*
X154441337Y-94844466D01*
X154417761Y-94944285D01*
X154367773Y-95037056D01*
X154292450Y-95116516D01*
X154192869Y-95176401D01*
X154130000Y-95198231D01*
X154093329Y-95203055D01*
X154024664Y-95207336D01*
X153929335Y-95211047D01*
X153812675Y-95214165D01*
X153680016Y-95216666D01*
X153536690Y-95218525D01*
X153388030Y-95219719D01*
X153239367Y-95220223D01*
X153096033Y-95220012D01*
X152963360Y-95219063D01*
X152846682Y-95217351D01*
X152751329Y-95214852D01*
X152682633Y-95211541D01*
X152645928Y-95207396D01*
X152641237Y-95205000D01*
X152653841Y-95184154D01*
X152686741Y-95140260D01*
X152734272Y-95080697D01*
X152767884Y-95040000D01*
X152893293Y-94890000D01*
X153431646Y-94880000D01*
X153575296Y-94876767D01*
X153706357Y-94872741D01*
X153819345Y-94868177D01*
X153908774Y-94863330D01*
X153969160Y-94858455D01*
X153995000Y-94853819D01*
X154017873Y-94819243D01*
X154013048Y-94775852D01*
X153982679Y-94741454D01*
X153981314Y-94740703D01*
X153948146Y-94733811D01*
X153879238Y-94728115D01*
X153778840Y-94723795D01*
X153651199Y-94721031D01*
X153500565Y-94720002D01*
X153492065Y-94720000D01*
X153343034Y-94719690D01*
X153227799Y-94718457D01*
X153140158Y-94715846D01*
X153073908Y-94711401D01*
X153022847Y-94704669D01*
X152980775Y-94695192D01*
X152941488Y-94682518D01*
X152931580Y-94678873D01*
X152821605Y-94619220D01*
X152742391Y-94537006D01*
X152695824Y-94437350D01*
X152683788Y-94325370D01*
X152708167Y-94206185D01*
X152734932Y-94144850D01*
X152775980Y-94087734D01*
X152840035Y-94038134D01*
X152890347Y-94010000D01*
X153007062Y-93950000D01*
X153703531Y-93944261D01*
X153865928Y-93943272D01*
X154014899Y-93943036D01*
X154145909Y-93943508D01*
X154145909Y-93943508D01*
G37*
X154145909Y-93943508D02*
X154254419Y-93944645D01*
X154335894Y-93946399D01*
X154385795Y-93948728D01*
X154400000Y-93951146D01*
X154388309Y-93971058D01*
X154356681Y-94015110D01*
X154310276Y-94076298D01*
X154267038Y-94131547D01*
X154134077Y-94299325D01*
X153634205Y-94304662D01*
X153478545Y-94306558D01*
X153358140Y-94308751D01*
X153268245Y-94311603D01*
X153204115Y-94315477D01*
X153161006Y-94320735D01*
X153134172Y-94327738D01*
X153118868Y-94336848D01*
X153112616Y-94344449D01*
X153100485Y-94368635D01*
X153100450Y-94387922D01*
X153116252Y-94402980D01*
X153151631Y-94414479D01*
X153210326Y-94423089D01*
X153296078Y-94429479D01*
X153412628Y-94434322D01*
X153563714Y-94438285D01*
X153645943Y-94440000D01*
X153801468Y-94443225D01*
X153922557Y-94446343D01*
X154014771Y-94449905D01*
X154083668Y-94454464D01*
X154134808Y-94460571D01*
X154173750Y-94468779D01*
X154206053Y-94479640D01*
X154237277Y-94493707D01*
X154250000Y-94500000D01*
X154342834Y-94565368D01*
X154404950Y-94648744D01*
X154437426Y-94743865D01*
X154441337Y-94844466D01*
X154417761Y-94944285D01*
X154367773Y-95037056D01*
X154292450Y-95116516D01*
X154192869Y-95176401D01*
X154130000Y-95198231D01*
X154093329Y-95203055D01*
X154024664Y-95207336D01*
X153929335Y-95211047D01*
X153812675Y-95214165D01*
X153680016Y-95216666D01*
X153536690Y-95218525D01*
X153388030Y-95219719D01*
X153239367Y-95220223D01*
X153096033Y-95220012D01*
X152963360Y-95219063D01*
X152846682Y-95217351D01*
X152751329Y-95214852D01*
X152682633Y-95211541D01*
X152645928Y-95207396D01*
X152641237Y-95205000D01*
X152653841Y-95184154D01*
X152686741Y-95140260D01*
X152734272Y-95080697D01*
X152767884Y-95040000D01*
X152893293Y-94890000D01*
X153431646Y-94880000D01*
X153575296Y-94876767D01*
X153706357Y-94872741D01*
X153819345Y-94868177D01*
X153908774Y-94863330D01*
X153969160Y-94858455D01*
X153995000Y-94853819D01*
X154017873Y-94819243D01*
X154013048Y-94775852D01*
X153982679Y-94741454D01*
X153981314Y-94740703D01*
X153948146Y-94733811D01*
X153879238Y-94728115D01*
X153778840Y-94723795D01*
X153651199Y-94721031D01*
X153500565Y-94720002D01*
X153492065Y-94720000D01*
X153343034Y-94719690D01*
X153227799Y-94718457D01*
X153140158Y-94715846D01*
X153073908Y-94711401D01*
X153022847Y-94704669D01*
X152980775Y-94695192D01*
X152941488Y-94682518D01*
X152931580Y-94678873D01*
X152821605Y-94619220D01*
X152742391Y-94537006D01*
X152695824Y-94437350D01*
X152683788Y-94325370D01*
X152708167Y-94206185D01*
X152734932Y-94144850D01*
X152775980Y-94087734D01*
X152840035Y-94038134D01*
X152890347Y-94010000D01*
X153007062Y-93950000D01*
X153703531Y-93944261D01*
X153865928Y-93943272D01*
X154014899Y-93943036D01*
X154145909Y-93943508D01*
G36*
X155685206Y-93936572D02*
X155733799Y-93959050D01*
X155764788Y-93987740D01*
X155816729Y-94048264D01*
X155888467Y-94139119D01*
X155978846Y-94258803D01*
X156086713Y-94405814D01*
X156210911Y-94578650D01*
X156218799Y-94589728D01*
X156315268Y-94725777D01*
X156403963Y-94851851D01*
X156482289Y-94964184D01*
X156547650Y-95059011D01*
X156597452Y-95132568D01*
X156629099Y-95181091D01*
X156640000Y-95200752D01*
X156620355Y-95205900D01*
X156562833Y-95210334D01*
X156469549Y-95213998D01*
X156342622Y-95216841D01*
X156184167Y-95218808D01*
X155996301Y-95219845D01*
X155880000Y-95220000D01*
X155710128Y-95219619D01*
X155553525Y-95218535D01*
X155414526Y-95216833D01*
X155297469Y-95214599D01*
X155206692Y-95211919D01*
X155146531Y-95208878D01*
X155121325Y-95205561D01*
X155120826Y-95205000D01*
X155132592Y-95183533D01*
X155163493Y-95138303D01*
X155208083Y-95077106D01*
X155236064Y-95040000D01*
X155350476Y-94890000D01*
X155615238Y-94884419D01*
X155712901Y-94881630D01*
X155794318Y-94877913D01*
X155852130Y-94873710D01*
X155878978Y-94869462D01*
X155880000Y-94868534D01*
X155869147Y-94847233D01*
X155840054Y-94801648D01*
X155797922Y-94739135D01*
X155747951Y-94667054D01*
X155695341Y-94592760D01*
X155645291Y-94523612D01*
X155603001Y-94466968D01*
X155573672Y-94430184D01*
X155562995Y-94420000D01*
X155547894Y-94435527D01*
X155512833Y-94479184D01*
X155461145Y-94546580D01*
X155396160Y-94633325D01*
X155321211Y-94735030D01*
X155259496Y-94819824D01*
X154970000Y-95219648D01*
X154725000Y-95219824D01*
X154617393Y-95218321D01*
X154538065Y-95213869D01*
X154491243Y-95206811D01*
X154480000Y-95199910D01*
X154491717Y-95175723D01*
X154524696Y-95124306D01*
X154575673Y-95050033D01*
X154641387Y-94957274D01*
X154718574Y-94850402D01*
X154803972Y-94733789D01*
X154894319Y-94611806D01*
X154986352Y-94488825D01*
X155076810Y-94369218D01*
X155162428Y-94257358D01*
X155239946Y-94157615D01*
X155306101Y-94074361D01*
X155357630Y-94011969D01*
X155391271Y-93974811D01*
X155399642Y-93967529D01*
X155486761Y-93929836D01*
X155587349Y-93919380D01*
X155685206Y-93936572D01*
X155685206Y-93936572D01*
G37*
X155685206Y-93936572D02*
X155733799Y-93959050D01*
X155764788Y-93987740D01*
X155816729Y-94048264D01*
X155888467Y-94139119D01*
X155978846Y-94258803D01*
X156086713Y-94405814D01*
X156210911Y-94578650D01*
X156218799Y-94589728D01*
X156315268Y-94725777D01*
X156403963Y-94851851D01*
X156482289Y-94964184D01*
X156547650Y-95059011D01*
X156597452Y-95132568D01*
X156629099Y-95181091D01*
X156640000Y-95200752D01*
X156620355Y-95205900D01*
X156562833Y-95210334D01*
X156469549Y-95213998D01*
X156342622Y-95216841D01*
X156184167Y-95218808D01*
X155996301Y-95219845D01*
X155880000Y-95220000D01*
X155710128Y-95219619D01*
X155553525Y-95218535D01*
X155414526Y-95216833D01*
X155297469Y-95214599D01*
X155206692Y-95211919D01*
X155146531Y-95208878D01*
X155121325Y-95205561D01*
X155120826Y-95205000D01*
X155132592Y-95183533D01*
X155163493Y-95138303D01*
X155208083Y-95077106D01*
X155236064Y-95040000D01*
X155350476Y-94890000D01*
X155615238Y-94884419D01*
X155712901Y-94881630D01*
X155794318Y-94877913D01*
X155852130Y-94873710D01*
X155878978Y-94869462D01*
X155880000Y-94868534D01*
X155869147Y-94847233D01*
X155840054Y-94801648D01*
X155797922Y-94739135D01*
X155747951Y-94667054D01*
X155695341Y-94592760D01*
X155645291Y-94523612D01*
X155603001Y-94466968D01*
X155573672Y-94430184D01*
X155562995Y-94420000D01*
X155547894Y-94435527D01*
X155512833Y-94479184D01*
X155461145Y-94546580D01*
X155396160Y-94633325D01*
X155321211Y-94735030D01*
X155259496Y-94819824D01*
X154970000Y-95219648D01*
X154725000Y-95219824D01*
X154617393Y-95218321D01*
X154538065Y-95213869D01*
X154491243Y-95206811D01*
X154480000Y-95199910D01*
X154491717Y-95175723D01*
X154524696Y-95124306D01*
X154575673Y-95050033D01*
X154641387Y-94957274D01*
X154718574Y-94850402D01*
X154803972Y-94733789D01*
X154894319Y-94611806D01*
X154986352Y-94488825D01*
X155076810Y-94369218D01*
X155162428Y-94257358D01*
X155239946Y-94157615D01*
X155306101Y-94074361D01*
X155357630Y-94011969D01*
X155391271Y-93974811D01*
X155399642Y-93967529D01*
X155486761Y-93929836D01*
X155587349Y-93919380D01*
X155685206Y-93936572D01*
G36*
X157919196Y-93940507D02*
X158051165Y-93941939D01*
X158164180Y-93944165D01*
X158253213Y-93947049D01*
X158313234Y-93950460D01*
X158339215Y-93954263D01*
X158339889Y-93955000D01*
X158328089Y-93975916D01*
X158296280Y-94020693D01*
X158249704Y-94082169D01*
X158208174Y-94135000D01*
X158076569Y-94300000D01*
X157684599Y-94300000D01*
X157547773Y-94300318D01*
X157444425Y-94301661D01*
X157368036Y-94304607D01*
X157312086Y-94309737D01*
X157270056Y-94317632D01*
X157235426Y-94328871D01*
X157204360Y-94342730D01*
X157116023Y-94404266D01*
X157060347Y-94485683D01*
X157040107Y-94582856D01*
X157040074Y-94586914D01*
X157057656Y-94684366D01*
X157111086Y-94764965D01*
X157188198Y-94822783D01*
X157223623Y-94840996D01*
X157260794Y-94854098D01*
X157307434Y-94863167D01*
X157371262Y-94869281D01*
X157460001Y-94873520D01*
X157575000Y-94876805D01*
X157880000Y-94884274D01*
X157880000Y-94720000D01*
X157550000Y-94720000D01*
X157421033Y-94719247D01*
X157327807Y-94716774D01*
X157266086Y-94712261D01*
X157231635Y-94705385D01*
X157220220Y-94695827D01*
X157220174Y-94695000D01*
X157233107Y-94670087D01*
X157267597Y-94624331D01*
X157317435Y-94565679D01*
X157345174Y-94535073D01*
X157470000Y-94400147D01*
X157890000Y-94405073D01*
X158310000Y-94410000D01*
X158310000Y-95210000D01*
X157760000Y-95214085D01*
X157592239Y-95215047D01*
X157459126Y-95214987D01*
X157355316Y-95213650D01*
X157275464Y-95210782D01*
X157214225Y-95206129D01*
X157166254Y-95199435D01*
X157126206Y-95190446D01*
X157100000Y-95182644D01*
X157006662Y-95149788D01*
X156936645Y-95116407D01*
X156874186Y-95073457D01*
X156805324Y-95013554D01*
X156708158Y-94906673D01*
X156646473Y-94793950D01*
X156615949Y-94665540D01*
X156610773Y-94570000D01*
X156613124Y-94479396D01*
X156622279Y-94413092D01*
X156641389Y-94355554D01*
X156663521Y-94310000D01*
X156747297Y-94186628D01*
X156856692Y-94088694D01*
X156995914Y-94012870D01*
X157078508Y-93982052D01*
X157118993Y-93969632D01*
X157159496Y-93959916D01*
X157205440Y-93952576D01*
X157262250Y-93947283D01*
X157335351Y-93943710D01*
X157430165Y-93941527D01*
X157552119Y-93940408D01*
X157706635Y-93940022D01*
X157773303Y-93940000D01*
X157919196Y-93940507D01*
X157919196Y-93940507D01*
G37*
X157919196Y-93940507D02*
X158051165Y-93941939D01*
X158164180Y-93944165D01*
X158253213Y-93947049D01*
X158313234Y-93950460D01*
X158339215Y-93954263D01*
X158339889Y-93955000D01*
X158328089Y-93975916D01*
X158296280Y-94020693D01*
X158249704Y-94082169D01*
X158208174Y-94135000D01*
X158076569Y-94300000D01*
X157684599Y-94300000D01*
X157547773Y-94300318D01*
X157444425Y-94301661D01*
X157368036Y-94304607D01*
X157312086Y-94309737D01*
X157270056Y-94317632D01*
X157235426Y-94328871D01*
X157204360Y-94342730D01*
X157116023Y-94404266D01*
X157060347Y-94485683D01*
X157040107Y-94582856D01*
X157040074Y-94586914D01*
X157057656Y-94684366D01*
X157111086Y-94764965D01*
X157188198Y-94822783D01*
X157223623Y-94840996D01*
X157260794Y-94854098D01*
X157307434Y-94863167D01*
X157371262Y-94869281D01*
X157460001Y-94873520D01*
X157575000Y-94876805D01*
X157880000Y-94884274D01*
X157880000Y-94720000D01*
X157550000Y-94720000D01*
X157421033Y-94719247D01*
X157327807Y-94716774D01*
X157266086Y-94712261D01*
X157231635Y-94705385D01*
X157220220Y-94695827D01*
X157220174Y-94695000D01*
X157233107Y-94670087D01*
X157267597Y-94624331D01*
X157317435Y-94565679D01*
X157345174Y-94535073D01*
X157470000Y-94400147D01*
X157890000Y-94405073D01*
X158310000Y-94410000D01*
X158310000Y-95210000D01*
X157760000Y-95214085D01*
X157592239Y-95215047D01*
X157459126Y-95214987D01*
X157355316Y-95213650D01*
X157275464Y-95210782D01*
X157214225Y-95206129D01*
X157166254Y-95199435D01*
X157126206Y-95190446D01*
X157100000Y-95182644D01*
X157006662Y-95149788D01*
X156936645Y-95116407D01*
X156874186Y-95073457D01*
X156805324Y-95013554D01*
X156708158Y-94906673D01*
X156646473Y-94793950D01*
X156615949Y-94665540D01*
X156610773Y-94570000D01*
X156613124Y-94479396D01*
X156622279Y-94413092D01*
X156641389Y-94355554D01*
X156663521Y-94310000D01*
X156747297Y-94186628D01*
X156856692Y-94088694D01*
X156995914Y-94012870D01*
X157078508Y-93982052D01*
X157118993Y-93969632D01*
X157159496Y-93959916D01*
X157205440Y-93952576D01*
X157262250Y-93947283D01*
X157335351Y-93943710D01*
X157430165Y-93941527D01*
X157552119Y-93940408D01*
X157706635Y-93940022D01*
X157773303Y-93940000D01*
X157919196Y-93940507D01*
G36*
X156719897Y-91880272D02*
X156909098Y-91881055D01*
X157081891Y-91882298D01*
X157234638Y-91883949D01*
X157363702Y-91885955D01*
X157465447Y-91888266D01*
X157536235Y-91890831D01*
X157572429Y-91893597D01*
X157576439Y-91895000D01*
X157561064Y-91912107D01*
X157520489Y-91953941D01*
X157458027Y-92017176D01*
X157376992Y-92098484D01*
X157280697Y-92194539D01*
X157172454Y-92302015D01*
X157078455Y-92395000D01*
X156946983Y-92524681D01*
X156840631Y-92628937D01*
X156756146Y-92710539D01*
X156690275Y-92772254D01*
X156639763Y-92816855D01*
X156601358Y-92847109D01*
X156571807Y-92865788D01*
X156547855Y-92875660D01*
X156526250Y-92879496D01*
X156508683Y-92880080D01*
X156485519Y-92879102D01*
X156463045Y-92874131D01*
X156437791Y-92862185D01*
X156406288Y-92840282D01*
X156365065Y-92805441D01*
X156310654Y-92754680D01*
X156239585Y-92685016D01*
X156148389Y-92593469D01*
X156033596Y-92477056D01*
X156000000Y-92442900D01*
X155889879Y-92330820D01*
X155786277Y-92225187D01*
X155693236Y-92130137D01*
X155614796Y-92049802D01*
X155554998Y-91988319D01*
X155517884Y-91949823D01*
X155511258Y-91942820D01*
X155452516Y-91880000D01*
X156517924Y-91880000D01*
X156719897Y-91880272D01*
X156719897Y-91880272D01*
G37*
X156719897Y-91880272D02*
X156909098Y-91881055D01*
X157081891Y-91882298D01*
X157234638Y-91883949D01*
X157363702Y-91885955D01*
X157465447Y-91888266D01*
X157536235Y-91890831D01*
X157572429Y-91893597D01*
X157576439Y-91895000D01*
X157561064Y-91912107D01*
X157520489Y-91953941D01*
X157458027Y-92017176D01*
X157376992Y-92098484D01*
X157280697Y-92194539D01*
X157172454Y-92302015D01*
X157078455Y-92395000D01*
X156946983Y-92524681D01*
X156840631Y-92628937D01*
X156756146Y-92710539D01*
X156690275Y-92772254D01*
X156639763Y-92816855D01*
X156601358Y-92847109D01*
X156571807Y-92865788D01*
X156547855Y-92875660D01*
X156526250Y-92879496D01*
X156508683Y-92880080D01*
X156485519Y-92879102D01*
X156463045Y-92874131D01*
X156437791Y-92862185D01*
X156406288Y-92840282D01*
X156365065Y-92805441D01*
X156310654Y-92754680D01*
X156239585Y-92685016D01*
X156148389Y-92593469D01*
X156033596Y-92477056D01*
X156000000Y-92442900D01*
X155889879Y-92330820D01*
X155786277Y-92225187D01*
X155693236Y-92130137D01*
X155614796Y-92049802D01*
X155554998Y-91988319D01*
X155517884Y-91949823D01*
X155511258Y-91942820D01*
X155452516Y-91880000D01*
X156517924Y-91880000D01*
X156719897Y-91880272D01*
G36*
X158371762Y-89980000D02*
X158594652Y-90205465D01*
X158695060Y-90309480D01*
X158768185Y-90391761D01*
X158816982Y-90456759D01*
X158844407Y-90508923D01*
X158853415Y-90552704D01*
X158848511Y-90587641D01*
X158831665Y-90613321D01*
X158792629Y-90660181D01*
X158737005Y-90722402D01*
X158670399Y-90794160D01*
X158598414Y-90869634D01*
X158526654Y-90943002D01*
X158460725Y-91008443D01*
X158406228Y-91060134D01*
X158368770Y-91092254D01*
X158355312Y-91100000D01*
X158344936Y-91082482D01*
X158340054Y-91039750D01*
X158340000Y-91034201D01*
X158331923Y-90955785D01*
X158310407Y-90856711D01*
X158279524Y-90752287D01*
X158243346Y-90657819D01*
X158235132Y-90640000D01*
X158169548Y-90537215D01*
X158075718Y-90435337D01*
X157964339Y-90344409D01*
X157846107Y-90274471D01*
X157845476Y-90274172D01*
X157710000Y-90210000D01*
X156698046Y-90200000D01*
X156463198Y-90197637D01*
X156265202Y-90195361D01*
X156100914Y-90192855D01*
X155967189Y-90189798D01*
X155860880Y-90185872D01*
X155778843Y-90180757D01*
X155717932Y-90174135D01*
X155675002Y-90165687D01*
X155646909Y-90155093D01*
X155630506Y-90142035D01*
X155622648Y-90126193D01*
X155620191Y-90107248D01*
X155620000Y-90090650D01*
X155634324Y-90042468D01*
X155656574Y-90013099D01*
X155666510Y-90006532D01*
X155682643Y-90000888D01*
X155707836Y-89996097D01*
X155744951Y-89992092D01*
X155796850Y-89988802D01*
X155866397Y-89986160D01*
X155956453Y-89984096D01*
X156069882Y-89982541D01*
X156209546Y-89981428D01*
X156378308Y-89980686D01*
X156579029Y-89980246D01*
X156814573Y-89980041D01*
X157032456Y-89979999D01*
X158371762Y-89980000D01*
X158371762Y-89980000D01*
G37*
X158371762Y-89980000D02*
X158594652Y-90205465D01*
X158695060Y-90309480D01*
X158768185Y-90391761D01*
X158816982Y-90456759D01*
X158844407Y-90508923D01*
X158853415Y-90552704D01*
X158848511Y-90587641D01*
X158831665Y-90613321D01*
X158792629Y-90660181D01*
X158737005Y-90722402D01*
X158670399Y-90794160D01*
X158598414Y-90869634D01*
X158526654Y-90943002D01*
X158460725Y-91008443D01*
X158406228Y-91060134D01*
X158368770Y-91092254D01*
X158355312Y-91100000D01*
X158344936Y-91082482D01*
X158340054Y-91039750D01*
X158340000Y-91034201D01*
X158331923Y-90955785D01*
X158310407Y-90856711D01*
X158279524Y-90752287D01*
X158243346Y-90657819D01*
X158235132Y-90640000D01*
X158169548Y-90537215D01*
X158075718Y-90435337D01*
X157964339Y-90344409D01*
X157846107Y-90274471D01*
X157845476Y-90274172D01*
X157710000Y-90210000D01*
X156698046Y-90200000D01*
X156463198Y-90197637D01*
X156265202Y-90195361D01*
X156100914Y-90192855D01*
X155967189Y-90189798D01*
X155860880Y-90185872D01*
X155778843Y-90180757D01*
X155717932Y-90174135D01*
X155675002Y-90165687D01*
X155646909Y-90155093D01*
X155630506Y-90142035D01*
X155622648Y-90126193D01*
X155620191Y-90107248D01*
X155620000Y-90090650D01*
X155634324Y-90042468D01*
X155656574Y-90013099D01*
X155666510Y-90006532D01*
X155682643Y-90000888D01*
X155707836Y-89996097D01*
X155744951Y-89992092D01*
X155796850Y-89988802D01*
X155866397Y-89986160D01*
X155956453Y-89984096D01*
X156069882Y-89982541D01*
X156209546Y-89981428D01*
X156378308Y-89980686D01*
X156579029Y-89980246D01*
X156814573Y-89980041D01*
X157032456Y-89979999D01*
X158371762Y-89980000D01*
G36*
X154705814Y-89979567D02*
X154717054Y-90036728D01*
X154723848Y-90115258D01*
X154752945Y-90284551D01*
X154818720Y-90440466D01*
X154919306Y-90580309D01*
X155052834Y-90701390D01*
X155190000Y-90787106D01*
X155310000Y-90850000D01*
X156331953Y-90860000D01*
X156568680Y-90862496D01*
X156768375Y-90865041D01*
X156934009Y-90867740D01*
X157068550Y-90870698D01*
X157174967Y-90874022D01*
X157256229Y-90877815D01*
X157315305Y-90882184D01*
X157355163Y-90887234D01*
X157378774Y-90893070D01*
X157386953Y-90897448D01*
X157414127Y-90940769D01*
X157418572Y-90994778D01*
X157400892Y-91042085D01*
X157381314Y-91059296D01*
X157351943Y-91064035D01*
X157282848Y-91068167D01*
X157174299Y-91071688D01*
X157026568Y-91074595D01*
X156839926Y-91076883D01*
X156614643Y-91078548D01*
X156350992Y-91079586D01*
X156049242Y-91079993D01*
X156003321Y-91080000D01*
X154664012Y-91080000D01*
X154432006Y-90837836D01*
X154346420Y-90747936D01*
X154284896Y-90681100D01*
X154243488Y-90631831D01*
X154218250Y-90594635D01*
X154205238Y-90564017D01*
X154200506Y-90534480D01*
X154200000Y-90514689D01*
X154201547Y-90483184D01*
X154208871Y-90454275D01*
X154225990Y-90422501D01*
X154256924Y-90382399D01*
X154305693Y-90328510D01*
X154376316Y-90255370D01*
X154433936Y-90196853D01*
X154513222Y-90117943D01*
X154583887Y-90050175D01*
X154640772Y-89998296D01*
X154678717Y-89967052D01*
X154691366Y-89960000D01*
X154705814Y-89979567D01*
X154705814Y-89979567D01*
G37*
X154705814Y-89979567D02*
X154717054Y-90036728D01*
X154723848Y-90115258D01*
X154752945Y-90284551D01*
X154818720Y-90440466D01*
X154919306Y-90580309D01*
X155052834Y-90701390D01*
X155190000Y-90787106D01*
X155310000Y-90850000D01*
X156331953Y-90860000D01*
X156568680Y-90862496D01*
X156768375Y-90865041D01*
X156934009Y-90867740D01*
X157068550Y-90870698D01*
X157174967Y-90874022D01*
X157256229Y-90877815D01*
X157315305Y-90882184D01*
X157355163Y-90887234D01*
X157378774Y-90893070D01*
X157386953Y-90897448D01*
X157414127Y-90940769D01*
X157418572Y-90994778D01*
X157400892Y-91042085D01*
X157381314Y-91059296D01*
X157351943Y-91064035D01*
X157282848Y-91068167D01*
X157174299Y-91071688D01*
X157026568Y-91074595D01*
X156839926Y-91076883D01*
X156614643Y-91078548D01*
X156350992Y-91079586D01*
X156049242Y-91079993D01*
X156003321Y-91080000D01*
X154664012Y-91080000D01*
X154432006Y-90837836D01*
X154346420Y-90747936D01*
X154284896Y-90681100D01*
X154243488Y-90631831D01*
X154218250Y-90594635D01*
X154205238Y-90564017D01*
X154200506Y-90534480D01*
X154200000Y-90514689D01*
X154201547Y-90483184D01*
X154208871Y-90454275D01*
X154225990Y-90422501D01*
X154256924Y-90382399D01*
X154305693Y-90328510D01*
X154376316Y-90255370D01*
X154433936Y-90196853D01*
X154513222Y-90117943D01*
X154583887Y-90050175D01*
X154640772Y-89998296D01*
X154678717Y-89967052D01*
X154691366Y-89960000D01*
X154705814Y-89979567D01*
G36*
X156555141Y-88182553D02*
X156583896Y-88195243D01*
X156619659Y-88218554D01*
X156664756Y-88254461D01*
X156721509Y-88304942D01*
X156792244Y-88371973D01*
X156879283Y-88457530D01*
X156984952Y-88563592D01*
X157111572Y-88692134D01*
X157261470Y-88845134D01*
X157436968Y-89024568D01*
X157447171Y-89035000D01*
X157588998Y-89180000D01*
X155450312Y-89180000D01*
X155929283Y-88700716D01*
X156045064Y-88585801D01*
X156154051Y-88479412D01*
X156252516Y-88385055D01*
X156336728Y-88306235D01*
X156402957Y-88246457D01*
X156447475Y-88209227D01*
X156463739Y-88198451D01*
X156487695Y-88188431D01*
X156509365Y-88181123D01*
X156531072Y-88178505D01*
X156555141Y-88182553D01*
X156555141Y-88182553D01*
G37*
X156555141Y-88182553D02*
X156583896Y-88195243D01*
X156619659Y-88218554D01*
X156664756Y-88254461D01*
X156721509Y-88304942D01*
X156792244Y-88371973D01*
X156879283Y-88457530D01*
X156984952Y-88563592D01*
X157111572Y-88692134D01*
X157261470Y-88845134D01*
X157436968Y-89024568D01*
X157447171Y-89035000D01*
X157588998Y-89180000D01*
X155450312Y-89180000D01*
X155929283Y-88700716D01*
X156045064Y-88585801D01*
X156154051Y-88479412D01*
X156252516Y-88385055D01*
X156336728Y-88306235D01*
X156402957Y-88246457D01*
X156447475Y-88209227D01*
X156463739Y-88198451D01*
X156487695Y-88188431D01*
X156509365Y-88181123D01*
X156531072Y-88178505D01*
X156555141Y-88182553D01*
D12*
X138960000Y-65085000D02*
X138960000Y-69675000D01*
X138960000Y-85085000D02*
X132960000Y-85085000D01*
X132960000Y-85085000D02*
X132960000Y-65085000D01*
X132960000Y-65085000D02*
X138960000Y-65085000D01*
X138960000Y-71295000D02*
X138960000Y-78865000D01*
X138960000Y-80505000D02*
X138960000Y-85085000D01*
D13*
X154781905Y-82992381D02*
X154781905Y-81992381D01*
X155020000Y-81992381D01*
X155162858Y-82040000D01*
X155258096Y-82135238D01*
X155305715Y-82230476D01*
X155353334Y-82420952D01*
X155353334Y-82563810D01*
X155305715Y-82754286D01*
X155258096Y-82849524D01*
X155162858Y-82944762D01*
X155020000Y-82992381D01*
X154781905Y-82992381D01*
X156305715Y-82992381D02*
X155734286Y-82992381D01*
X156020000Y-82992381D02*
X156020000Y-81992381D01*
X155924762Y-82135238D01*
X155829524Y-82230476D01*
X155734286Y-82278095D01*
X170952381Y-91333333D02*
X171666667Y-91333333D01*
X171809524Y-91380953D01*
X171904762Y-91476191D01*
X171952381Y-91619048D01*
X171952381Y-91714286D01*
X171952381Y-90333333D02*
X171952381Y-90904762D01*
X171952381Y-90619048D02*
X170952381Y-90619048D01*
X171095238Y-90714286D01*
X171190476Y-90809524D01*
X171238095Y-90904762D01*
X138202381Y-73583333D02*
X138916667Y-73583333D01*
X139059524Y-73630953D01*
X139154762Y-73726191D01*
X139202381Y-73869048D01*
X139202381Y-73964286D01*
X138297619Y-73154762D02*
X138250000Y-73107143D01*
X138202381Y-73011905D01*
X138202381Y-72773809D01*
X138250000Y-72678571D01*
X138297619Y-72630952D01*
X138392857Y-72583333D01*
X138488095Y-72583333D01*
X138630952Y-72630952D01*
X139202381Y-73202381D01*
X139202381Y-72583333D01*
X170952381Y-77083333D02*
X171666667Y-77083333D01*
X171809524Y-77130953D01*
X171904762Y-77226191D01*
X171952381Y-77369048D01*
X171952381Y-77464286D01*
X170952381Y-76702381D02*
X170952381Y-76083333D01*
X171333333Y-76416667D01*
X171333333Y-76273809D01*
X171380952Y-76178571D01*
X171428571Y-76130952D01*
X171523810Y-76083333D01*
X171761905Y-76083333D01*
X171857143Y-76130952D01*
X171904762Y-76178571D01*
X171952381Y-76273809D01*
X171952381Y-76559524D01*
X171904762Y-76654762D01*
X171857143Y-76702381D01*
X159816667Y-48942381D02*
X159816667Y-49656667D01*
X159769047Y-49799524D01*
X159673809Y-49894762D01*
X159530952Y-49942381D01*
X159435714Y-49942381D01*
X160721429Y-49275714D02*
X160721429Y-49942381D01*
X160483333Y-48894762D02*
X160245238Y-49609048D01*
X160864286Y-49609048D01*
X151892381Y-75836666D02*
X151416190Y-76170000D01*
X151892381Y-76408095D02*
X150892381Y-76408095D01*
X150892381Y-76027142D01*
X150940000Y-75931904D01*
X150987619Y-75884285D01*
X151082857Y-75836666D01*
X151225714Y-75836666D01*
X151320952Y-75884285D01*
X151368571Y-75931904D01*
X151416190Y-76027142D01*
X151416190Y-76408095D01*
X151892381Y-74884285D02*
X151892381Y-75455714D01*
X151892381Y-75170000D02*
X150892381Y-75170000D01*
X151035238Y-75265238D01*
X151130476Y-75360476D01*
X151178095Y-75455714D01*
X162163334Y-79142381D02*
X161830000Y-78666190D01*
X161591905Y-79142381D02*
X161591905Y-78142381D01*
X161972858Y-78142381D01*
X162068096Y-78190000D01*
X162115715Y-78237619D01*
X162163334Y-78332857D01*
X162163334Y-78475714D01*
X162115715Y-78570952D01*
X162068096Y-78618571D01*
X161972858Y-78666190D01*
X161591905Y-78666190D01*
X163068096Y-78142381D02*
X162591905Y-78142381D01*
X162544286Y-78618571D01*
X162591905Y-78570952D01*
X162687143Y-78523333D01*
X162925239Y-78523333D01*
X163020477Y-78570952D01*
X163068096Y-78618571D01*
X163115715Y-78713810D01*
X163115715Y-78951905D01*
X163068096Y-79047143D01*
X163020477Y-79094762D01*
X162925239Y-79142381D01*
X162687143Y-79142381D01*
X162591905Y-79094762D01*
X162544286Y-79047143D01*
X163550953Y-87762381D02*
X163217619Y-87286190D01*
X162979524Y-87762381D02*
X162979524Y-86762381D01*
X163360477Y-86762381D01*
X163455715Y-86810000D01*
X163503334Y-86857619D01*
X163550953Y-86952857D01*
X163550953Y-87095714D01*
X163503334Y-87190952D01*
X163455715Y-87238571D01*
X163360477Y-87286190D01*
X162979524Y-87286190D01*
X164503334Y-87762381D02*
X163931905Y-87762381D01*
X164217619Y-87762381D02*
X164217619Y-86762381D01*
X164122381Y-86905238D01*
X164027143Y-87000476D01*
X163931905Y-87048095D01*
X164884286Y-86857619D02*
X164931905Y-86810000D01*
X165027143Y-86762381D01*
X165265239Y-86762381D01*
X165360477Y-86810000D01*
X165408096Y-86857619D01*
X165455715Y-86952857D01*
X165455715Y-87048095D01*
X165408096Y-87190952D01*
X164836667Y-87762381D01*
X165455715Y-87762381D01*
X166074762Y-86762381D02*
X166170001Y-86762381D01*
X166265239Y-86810000D01*
X166312858Y-86857619D01*
X166360477Y-86952857D01*
X166408096Y-87143333D01*
X166408096Y-87381429D01*
X166360477Y-87571905D01*
X166312858Y-87667143D01*
X166265239Y-87714762D01*
X166170001Y-87762381D01*
X166074762Y-87762381D01*
X165979524Y-87714762D01*
X165931905Y-87667143D01*
X165884286Y-87571905D01*
X165836667Y-87381429D01*
X165836667Y-87143333D01*
X165884286Y-86952857D01*
X165931905Y-86857619D01*
X165979524Y-86810000D01*
X166074762Y-86762381D01*
X166366667Y-87004762D02*
X166509524Y-87052381D01*
X166747620Y-87052381D01*
X166842858Y-87004762D01*
X166890477Y-86957143D01*
X166938096Y-86861905D01*
X166938096Y-86766667D01*
X166890477Y-86671429D01*
X166842858Y-86623810D01*
X166747620Y-86576190D01*
X166557143Y-86528571D01*
X166461905Y-86480952D01*
X166414286Y-86433333D01*
X166366667Y-86338095D01*
X166366667Y-86242857D01*
X166414286Y-86147619D01*
X166461905Y-86100000D01*
X166557143Y-86052381D01*
X166795239Y-86052381D01*
X166938096Y-86100000D01*
X167271429Y-86052381D02*
X167509524Y-87052381D01*
X167700001Y-86338095D01*
X167890477Y-87052381D01*
X168128572Y-86052381D01*
X169033334Y-87052381D02*
X168461905Y-87052381D01*
X168747619Y-87052381D02*
X168747619Y-86052381D01*
X168652381Y-86195238D01*
X168557143Y-86290476D01*
X168461905Y-86338095D01*
D17*
X161356276Y-65832305D02*
X161356276Y-67159924D01*
X161434371Y-67316114D01*
X161512467Y-67394210D01*
X161668657Y-67472305D01*
X161981038Y-67472305D01*
X162137229Y-67394210D01*
X162215324Y-67316114D01*
X162293419Y-67159924D01*
X162293419Y-65832305D01*
X163933419Y-67472305D02*
X162996276Y-67472305D01*
X163464847Y-67472305D02*
X163464847Y-65832305D01*
X163308657Y-66066590D01*
X163152466Y-66222781D01*
X162996276Y-66300876D01*
X157076581Y-81518505D02*
X157076581Y-79878505D01*
X157857533Y-81518505D02*
X157857533Y-79878505D01*
X158794676Y-81518505D01*
X158794676Y-79878505D01*
X159497533Y-81049933D02*
X160278485Y-81049933D01*
X159341342Y-81518505D02*
X159888009Y-79878505D01*
X160434676Y-81518505D01*
X161840390Y-81518505D02*
X160903247Y-81518505D01*
X161371818Y-81518505D02*
X161371818Y-79878505D01*
X161215628Y-80112790D01*
X161059437Y-80268981D01*
X160903247Y-80347076D01*
X162465152Y-80034695D02*
X162543247Y-79956600D01*
X162699438Y-79878505D01*
X163089914Y-79878505D01*
X163246104Y-79956600D01*
X163324200Y-80034695D01*
X163402295Y-80190886D01*
X163402295Y-80347076D01*
X163324200Y-80581362D01*
X162387057Y-81518505D01*
X163402295Y-81518505D01*
X164027057Y-80034695D02*
X164105152Y-79956600D01*
X164261343Y-79878505D01*
X164651819Y-79878505D01*
X164808009Y-79956600D01*
X164886105Y-80034695D01*
X164964200Y-80190886D01*
X164964200Y-80347076D01*
X164886105Y-80581362D01*
X163948962Y-81518505D01*
X164964200Y-81518505D01*
X165667057Y-81518505D02*
X165667057Y-79878505D01*
X166291819Y-79878505D01*
X166448010Y-79956600D01*
X166526105Y-80034695D01*
X166604200Y-80190886D01*
X166604200Y-80425171D01*
X166526105Y-80581362D01*
X166448010Y-80659457D01*
X166291819Y-80737552D01*
X165667057Y-80737552D01*
X167228962Y-81049933D02*
X168009914Y-81049933D01*
X167072771Y-81518505D02*
X167619438Y-79878505D01*
X168166105Y-81518505D01*
X144750476Y-94337381D02*
X145417143Y-95337381D01*
X145417143Y-94337381D02*
X144750476Y-95337381D01*
X146321905Y-95337381D02*
X145750476Y-95337381D01*
X146036190Y-95337381D02*
X146036190Y-94337381D01*
X145940952Y-94480238D01*
X145845714Y-94575476D01*
X145750476Y-94623095D01*
X138432619Y-90860714D02*
X138385000Y-90813095D01*
X138337381Y-90717857D01*
X138337381Y-90479761D01*
X138385000Y-90384523D01*
X138432619Y-90336904D01*
X138527857Y-90289285D01*
X138623095Y-90289285D01*
X138765952Y-90336904D01*
X139337381Y-90908333D01*
X139337381Y-90289285D01*
X138337381Y-89955952D02*
X138337381Y-89336904D01*
X138718333Y-89670238D01*
X138718333Y-89527380D01*
X138765952Y-89432142D01*
X138813571Y-89384523D01*
X138908810Y-89336904D01*
X139146905Y-89336904D01*
X139242143Y-89384523D01*
X139289762Y-89432142D01*
X139337381Y-89527380D01*
X139337381Y-89813095D01*
X139289762Y-89908333D01*
X139242143Y-89955952D01*
X138337381Y-89003571D02*
X138337381Y-88384523D01*
X138718333Y-88717857D01*
X138718333Y-88574999D01*
X138765952Y-88479761D01*
X138813571Y-88432142D01*
X138908810Y-88384523D01*
X139146905Y-88384523D01*
X139242143Y-88432142D01*
X139289762Y-88479761D01*
X139337381Y-88574999D01*
X139337381Y-88860714D01*
X139289762Y-88955952D01*
X139242143Y-89003571D01*
X138956429Y-87955952D02*
X138956429Y-87194047D01*
X138432619Y-86765476D02*
X138385000Y-86717857D01*
X138337381Y-86622619D01*
X138337381Y-86384523D01*
X138385000Y-86289285D01*
X138432619Y-86241666D01*
X138527857Y-86194047D01*
X138623095Y-86194047D01*
X138765952Y-86241666D01*
X139337381Y-86813095D01*
X139337381Y-86194047D01*
X138337381Y-85575000D02*
X138337381Y-85479761D01*
X138385000Y-85384523D01*
X138432619Y-85336904D01*
X138527857Y-85289285D01*
X138718333Y-85241666D01*
X138956429Y-85241666D01*
X139146905Y-85289285D01*
X139242143Y-85336904D01*
X139289762Y-85384523D01*
X139337381Y-85479761D01*
X139337381Y-85575000D01*
X139289762Y-85670238D01*
X139242143Y-85717857D01*
X139146905Y-85765476D01*
X138956429Y-85813095D01*
X138718333Y-85813095D01*
X138527857Y-85765476D01*
X138432619Y-85717857D01*
X138385000Y-85670238D01*
X138337381Y-85575000D01*
X138337381Y-84908333D02*
X138337381Y-84289285D01*
X138718333Y-84622619D01*
X138718333Y-84479761D01*
X138765952Y-84384523D01*
X138813571Y-84336904D01*
X138908810Y-84289285D01*
X139146905Y-84289285D01*
X139242143Y-84336904D01*
X139289762Y-84384523D01*
X139337381Y-84479761D01*
X139337381Y-84765476D01*
X139289762Y-84860714D01*
X139242143Y-84908333D01*
D13*
X184086667Y-47052381D02*
X183753333Y-46576190D01*
X183515238Y-47052381D02*
X183515238Y-46052381D01*
X183896191Y-46052381D01*
X183991429Y-46100000D01*
X184039048Y-46147619D01*
X184086667Y-46242857D01*
X184086667Y-46385714D01*
X184039048Y-46480952D01*
X183991429Y-46528571D01*
X183896191Y-46576190D01*
X183515238Y-46576190D01*
X184515238Y-46528571D02*
X184848572Y-46528571D01*
X184991429Y-47052381D02*
X184515238Y-47052381D01*
X184515238Y-46052381D01*
X184991429Y-46052381D01*
X185753334Y-46528571D02*
X185420000Y-46528571D01*
X185420000Y-47052381D02*
X185420000Y-46052381D01*
X185896191Y-46052381D01*
X186420000Y-46052381D02*
X186420000Y-46290476D01*
X186181905Y-46195238D02*
X186420000Y-46290476D01*
X186658096Y-46195238D01*
X186277143Y-46480952D02*
X186420000Y-46290476D01*
X186562858Y-46480952D01*
X187181905Y-46052381D02*
X187181905Y-46290476D01*
X186943810Y-46195238D02*
X187181905Y-46290476D01*
X187420001Y-46195238D01*
X187039048Y-46480952D02*
X187181905Y-46290476D01*
X187324763Y-46480952D01*
X134556667Y-47052381D02*
X134223333Y-46576190D01*
X133985238Y-47052381D02*
X133985238Y-46052381D01*
X134366191Y-46052381D01*
X134461429Y-46100000D01*
X134509048Y-46147619D01*
X134556667Y-46242857D01*
X134556667Y-46385714D01*
X134509048Y-46480952D01*
X134461429Y-46528571D01*
X134366191Y-46576190D01*
X133985238Y-46576190D01*
X134985238Y-46528571D02*
X135318572Y-46528571D01*
X135461429Y-47052381D02*
X134985238Y-47052381D01*
X134985238Y-46052381D01*
X135461429Y-46052381D01*
X136223334Y-46528571D02*
X135890000Y-46528571D01*
X135890000Y-47052381D02*
X135890000Y-46052381D01*
X136366191Y-46052381D01*
X136890000Y-46052381D02*
X136890000Y-46290476D01*
X136651905Y-46195238D02*
X136890000Y-46290476D01*
X137128096Y-46195238D01*
X136747143Y-46480952D02*
X136890000Y-46290476D01*
X137032858Y-46480952D01*
X137651905Y-46052381D02*
X137651905Y-46290476D01*
X137413810Y-46195238D02*
X137651905Y-46290476D01*
X137890001Y-46195238D01*
X137509048Y-46480952D02*
X137651905Y-46290476D01*
X137794763Y-46480952D01*
X134556667Y-86422381D02*
X134223333Y-85946190D01*
X133985238Y-86422381D02*
X133985238Y-85422381D01*
X134366191Y-85422381D01*
X134461429Y-85470000D01*
X134509048Y-85517619D01*
X134556667Y-85612857D01*
X134556667Y-85755714D01*
X134509048Y-85850952D01*
X134461429Y-85898571D01*
X134366191Y-85946190D01*
X133985238Y-85946190D01*
X134985238Y-85898571D02*
X135318572Y-85898571D01*
X135461429Y-86422381D02*
X134985238Y-86422381D01*
X134985238Y-85422381D01*
X135461429Y-85422381D01*
X136223334Y-85898571D02*
X135890000Y-85898571D01*
X135890000Y-86422381D02*
X135890000Y-85422381D01*
X136366191Y-85422381D01*
X136890000Y-85422381D02*
X136890000Y-85660476D01*
X136651905Y-85565238D02*
X136890000Y-85660476D01*
X137128096Y-85565238D01*
X136747143Y-85850952D02*
X136890000Y-85660476D01*
X137032858Y-85850952D01*
X137651905Y-85422381D02*
X137651905Y-85660476D01*
X137413810Y-85565238D02*
X137651905Y-85660476D01*
X137890001Y-85565238D01*
X137509048Y-85850952D02*
X137651905Y-85660476D01*
X137794763Y-85850952D01*
X184086667Y-86422381D02*
X183753333Y-85946190D01*
X183515238Y-86422381D02*
X183515238Y-85422381D01*
X183896191Y-85422381D01*
X183991429Y-85470000D01*
X184039048Y-85517619D01*
X184086667Y-85612857D01*
X184086667Y-85755714D01*
X184039048Y-85850952D01*
X183991429Y-85898571D01*
X183896191Y-85946190D01*
X183515238Y-85946190D01*
X184515238Y-85898571D02*
X184848572Y-85898571D01*
X184991429Y-86422381D02*
X184515238Y-86422381D01*
X184515238Y-85422381D01*
X184991429Y-85422381D01*
X185753334Y-85898571D02*
X185420000Y-85898571D01*
X185420000Y-86422381D02*
X185420000Y-85422381D01*
X185896191Y-85422381D01*
X186420000Y-85422381D02*
X186420000Y-85660476D01*
X186181905Y-85565238D02*
X186420000Y-85660476D01*
X186658096Y-85565238D01*
X186277143Y-85850952D02*
X186420000Y-85660476D01*
X186562858Y-85850952D01*
X187181905Y-85422381D02*
X187181905Y-85660476D01*
X186943810Y-85565238D02*
X187181905Y-85660476D01*
X187420001Y-85565238D01*
X187039048Y-85850952D02*
X187181905Y-85660476D01*
X187324763Y-85850952D01*
X139868571Y-75388333D02*
X139868571Y-75721667D01*
X140392381Y-75721667D02*
X139392381Y-75721667D01*
X139392381Y-75245476D01*
X140392381Y-74340714D02*
X140392381Y-74912143D01*
X140392381Y-74626429D02*
X139392381Y-74626429D01*
X139535238Y-74721667D01*
X139630476Y-74816905D01*
X139678095Y-74912143D01*
M02*
