M48
;DRILL file {KiCad 4.0.7-e0-6372~58~ubuntu16.04.1} date Wed Aug 16 12:03:20 2017
;FORMAT={-:-/ absolute / metric / decimal}
FMAT,2
METRIC,TZ
T1C0.800
T2C0.900
T3C1.020
T4C1.118
T5C1.200
T6C2.000
T7C2.400
T8C3.050
%
G90
G05
M71
T1
X153.75Y-70.59
X153.75Y-80.75
X157.25Y-81.
X159.59Y-85.
X163.5Y-89.75
X163.5Y-92.25
X165.5Y-89.75
X165.5Y-92.25
X167.41Y-81.
X167.5Y-89.75
X167.5Y-92.25
X169.75Y-85.
T2
X154.25Y-85.5
X156.79Y-85.5
T3
X142.75Y-71.75
X142.75Y-74.75
X145.75Y-71.75
X145.75Y-74.75
X150.5Y-66.
X152.07Y-63.46
X153.29Y-66.
X154.61Y-63.46
X155.96Y-66.
X157.41Y-63.46
X158.75Y-66.
X160.15Y-63.46
X161.55Y-66.
X162.9Y-63.46
X164.34Y-66.
X165.69Y-63.46
X167.01Y-66.
X168.43Y-63.46
X169.8Y-66.
X175.5Y-72.25
X175.5Y-75.25
X175.5Y-78.25
X175.5Y-81.25
X175.5Y-91.
X178.5Y-72.25
X178.5Y-75.25
X178.5Y-78.25
X178.5Y-81.25
X178.5Y-91.
T4
X159.38Y-69.88
X159.38Y-72.42
X159.38Y-74.96
X159.38Y-77.5
X167.Y-69.88
X167.Y-72.42
X167.Y-74.96
X167.Y-77.5
T5
X141.75Y-86.5
X141.75Y-91.5
X144.25Y-86.5
X144.25Y-91.5
X146.75Y-86.5
X146.75Y-91.5
T6
X137.16Y-70.485
X137.16Y-79.685
T7
X135.96Y-75.085
T8
X143.39Y-63.46
X176.92Y-63.71
T0
M30
